<svg xmlns="http://www.w3.org/2000/svg" viewBox="0 0 1893 2436"><defs><style>.cls-1{fill:#ffffe8;}.cls-2{fill:#ffcdda;}.cls-3{fill:none;stroke:#e59ab0;stroke-miterlimit:10;}.cls-4{fill:#e59ab0;}.cls-5{fill:#af604e;}.cls-6{fill:#5b2d93;}.cls-7{fill:#ffda08;}.cls-8{fill:#009c90;}.cls-9{fill:#007b6d;}.cls-10{fill:#743131;}.cls-11{fill:#8d54bd;}.cls-12{fill:#c8b0fa;}.cls-13{fill:#fff;}.cls-14{fill:#f19b80;}.cls-15{fill:#1a2e35;}.cls-16{fill:#7ae0e2;}.cls-17{fill:#f17e7a;}.cls-18{fill:#fcaf20;}.cls-19{fill:#002;}.cls-20{fill:#cb8ff4;}</style></defs><g id="Layer_2" data-name="Layer 2"><rect class="cls-1" width="1125" height="2436"/><text/></g><g id="Layer_1" data-name="Layer 1"><ellipse class="cls-2" cx="1033.6" cy="1170.9" rx="43.7" ry="48"/><ellipse class="cls-2" cx="103.2" cy="899.7" rx="34.9" ry="38.3"/><ellipse class="cls-2" cx="859.1" cy="772.3" rx="79.5" ry="87.3"/><path class="cls-2" d="M148.4,1653H947c36-26.4,87.1-56.7,106.3-118.1,45.4-145.5-61.5-197.3-119.6-269.4s62.2-102,46.1-257.3c-8.3-79.9-105.5-152.9-205-114.5S661,886.4,614.9,793.3c-53.6-108.3-282.5-167-415.2,27.6S195,1162.8,180,1232.4,58.1,1337.8,50.5,1471.7C46.1,1549.3,72.2,1618.8,148.4,1653Z"/><path class="cls-3" d="M208.7,1649.2c-12.6,3.6-69.7,14-68.8-35.9.5-25.5-6.3-24.6-19.9-34.6s-13.2-16.4-12.1-30.6-11.7-7.4-20.3-26.1c-10.4-22.5,2.1-39.2,22.1-43.2s19.5,19.7,27.5,26.8,19-8.2,34.3,12.4c10,13.5-5.6,44.3,9.1,41.4"/><path class="cls-4" d="M181.6,1605.3q-21.9-32.4-45.6-63.5c-5.3-7-10.7-13.9-16.2-20.8-.6-.7-1.6.3-1,1.1q26.4,33.3,50.8,68.3l10.7,15.7c.5.8,1.8,0,1.3-.8Z"/><path class="cls-4" d="M150.1,1518.9l-2.2,35.6-.3,5.1.8-.8-26,2.4-3.8.3c-.9.1-1,1.6,0,1.5l26-2.3,3.8-.4a.7.7,0,0,0,.7-.7l2.2-35.6.3-5.1c.1-1-1.4-1-1.5,0Z"/><path class="cls-3" d="M124.3,1353.4c-44.7-25.6-51.3-88.4-2.5-119.7,50.7-32.4,92.2,22.5,97.9,63.6,4.5,31.7-15.7,53.8,36.8,77.1s44.5,52,33.7,107.2,24.7,35,52.3,81.5c21.8,36.9-8.9,74.6-22.6,88.6l-107.5-.5a89.7,89.7,0,0,1-9.9-7.6c-34.7-31.2-20.9-80.4-17.3-118.7,3.9-41.5-50.4-22.9-72-76.1S152.8,1369.7,124.3,1353.4Z"/><path class="cls-4" d="M300.3,1650.7l-3.5-8.4c-3.2-7.7-6.4-15.4-9.5-23.1l-14.4-34.5-17.8-42.9-20.3-48.3q-10.5-25.2-21.2-50.4c-7-16.5-14-32.9-21.1-49.4s-13.1-30.4-19.7-45.5c-5.6-12.8-11.2-25.5-17-38.2-4.2-9.4-8.5-18.8-13.1-28.1l-2.4-4.8c-.4-.9-1.7-.1-1.3.7,4.2,8.3,8.1,16.7,12,25.1,5.4,11.9,10.7,23.8,16,35.8q9.8,22,19.2,44.1,10.5,24.3,20.8,48.7t21.4,50.6L249,1531c6.2,14.8,12.3,29.7,18.5,44.5l15.3,36.9,10.8,26,5,12.2c.1.2.2.3.2.5s1.8.5,1.5-.4Z"/><path class="cls-4" d="M201.3,1416.3l-24.2-1.4-38.3-2.2-8.7-.5c-1-.1-1,1.4,0,1.5l24.2,1.4,38.3,2.2,8.7.5c1,.1,1-1.4,0-1.5Z"/><path class="cls-4" d="M273.3,1587.3l-27.2-3.3-43.1-5.1-9.8-1.1c-1-.2-1,1.3,0,1.5l27.2,3.2,43.1,5.1,9.8,1.2c1,.1,1-1.4,0-1.5Z"/><path class="cls-4" d="M278,1400.7l-4.1,9.9-10,23.7-12.1,28.6-10.5,24.6c-1.7,4-3.6,8-5.1,12.1h0c-.4.9.9,1.7,1.3.8l4.1-9.9,10-23.6,12.2-28.7,10.4-24.6c1.7-4,3.6-8,5.1-12v-.2c.4-.9-.9-1.6-1.3-.8Z"/><path class="cls-3" d="M165.6,1291.1c3.5,5.4,10.4,6.8,15.3,3.2a12,12,0,0,0,2.7-16.2,10.9,10.9,0,0,0-15.4-3.3C163.3,1278.4,162.1,1285.7,165.6,1291.1Z"/><path class="cls-3" d="M170,1314.3a6.4,6.4,0,0,0,6.2,6.5,6.3,6.3,0,0,0,6.1-6.5,6.3,6.3,0,0,0-6.1-6.5A6.4,6.4,0,0,0,170,1314.3Z"/><path class="cls-3" d="M139.1,1450.5a9.5,9.5,0,1,0,19,0c0-5.6-4.3-10.1-9.5-10.1S139.1,1444.9,139.1,1450.5Z"/><path class="cls-3" d="M1078.4,1468.3c15.4-13.8,19.1-56.3-2.8-69.2-27.1-15.9-55.5,8.8-59.1,34.2-2.7,19.5,12.1,43.7-22.7,47.6-32.6,3.6-35.7,22.9-20.8,66.3,11.3,32.6-15.2,21.6-32.3,50.3-13.5,22.9,5.5,46.1,13.9,54.8l66.5-.4a45.1,45.1,0,0,0,6.1-4.7c21.5-19.2,12.9-49.6,10.7-73.3-2.4-25.6,31.1-14.2,44.5-47S1063.1,1482,1078.4,1468.3Z"/><path class="cls-4" d="M967.9,1652c.7-1.7,1.5-3.4,2.2-5.2,1.9-4.7,3.9-9.4,5.8-14.2l8.9-21.3c3.6-8.8,7.3-17.6,11-26.4s8.3-20,12.5-29.9,8.7-20.8,13.1-31.1,8.7-20.5,13.1-30.7,8-18.6,12.1-27.9l10.5-23.7c2.6-5.8,5.3-11.5,8.1-17.2l1.5-3.1c.4-.8-.9-1.6-1.3-.7-2.6,5.1-5,10.3-7.4,15.5-3.4,7.4-6.7,14.8-10,22.2-4,9.1-7.9,18.1-11.8,27.2l-12.9,30.2-13.2,31.2c-4.3,10.1-8.5,20.2-12.7,30.3s-7.7,18.3-11.5,27.5c-3.2,7.6-6.3,15.3-9.5,22.9l-6.6,16.1c-1.1,2.5-2.2,5-3.2,7.6,0,.1-.1.2-.1.3s1.1,1.3,1.4.4Z"/><path class="cls-4" d="M1027.9,1508l14.9-.8,23.7-1.4,5.5-.3c.9-.1.9-1.6,0-1.5l-14.9.8-23.7,1.4-5.5.3c-.9.1-1,1.6,0,1.5Z"/><path class="cls-4" d="M983.4,1613.7l16.8-2,26.6-3.2,6.2-.7c.9-.1.9-1.6,0-1.5l-16.8,2-26.6,3.1-6.2.8c-.9.1-.9,1.6,0,1.5Z"/><path class="cls-4" d="M974.5,1491.7l10.5,22.8,16.5,36.1,3.8,8.4c.5.8,1.7.1,1.3-.8l-10.4-22.8-16.6-36.1-3.8-8.4c-.4-.8-1.7-.1-1.3.8Z"/><path class="cls-3" d="M1042.9,1427.6c-2.2,3.4-5.9,4.6-8.4,2.9s-2.7-5.9-.6-9.3,5.9-4.6,8.4-2.8S1045,1424.3,1042.9,1427.6Z"/><path class="cls-3" d="M1066.4,1527.9a6,6,0,0,1-5.9,6.2,6.2,6.2,0,0,1,0-12.4A6,6,0,0,1,1066.4,1527.9Z"/><polygon class="cls-5" points="368.6 1532.1 363.7 1589.8 335 1594.9 333.2 1534.2 368.6 1532.1"/><polygon class="cls-6" points="430.2 1652.5 320.3 1651 323.6 1579.7 375 1584.2 376.3 1612.1 430.2 1652.5"/><path d="M397.7,1621.8l-6.1,14.4-.9,2c-.3.8.9,1.1,1.2.4l6.1-14.4.9-2.1c.3-.7-.9-1-1.2-.3Z"/><path d="M387.6,1615.6l-6,14.4-.9,2c-.3.8.9,1.1,1.2.4L388,1618l.8-2.1c.3-.7-.9-1-1.2-.3Z"/><path d="M380.9,1613.7a96.7,96.7,0,0,0,12-6.1,59.4,59.4,0,0,0,8.2-6c1.9-1.7,4-3.9,4.4-6.5a6.6,6.6,0,0,0-2.5-6,5,5,0,0,0-5.4-.4,17.9,17.9,0,0,0-5.7,4.9,55.3,55.3,0,0,0-5.3,7.4,105.3,105.3,0,0,0-6.5,11.9c-.4.7.7,1.3,1.1.6,1.4-3,3-6,4.7-8.9,2.7-4.7,5.8-9.9,10.1-13.4,1.3-1.1,3.2-2.3,5-1.8a5.5,5.5,0,0,1,3.4,4.6c0,2.5-2,4.6-3.6,6.2a43.1,43.1,0,0,1-7.6,5.7,98.4,98.4,0,0,1-12.9,6.7C379.6,1613,380.2,1614,380.9,1613.7Z"/><path d="M386.7,1583.2l-6.5,26.6-1,3.8c-.1.7,1.1,1.1,1.3.3l6.5-26.6.9-3.8a.6.6,0,0,0-1.2-.3Z"/><path class="cls-7" d="M341.8,1651.3a21.8,21.8,0,0,0,2.4-11.1c-.4-11.8-9.4-21.1-20.2-20.7l-2.3.3v1.5a8.5,8.5,0,0,1,2.3-.3c10.1-.4,18.6,8.2,18.9,19.3a21.3,21.3,0,0,1-2.6,11Z"/><path d="M430.2,1651.9l-11-.2-26.3-.3-31.6-.5-27.4-.3-9.1-.2H322a7.5,7.5,0,0,0-1.5,0h-.2l.6.6,1.1-24.2,1.8-38.3.4-8.8c0-.8-1.2-.8-1.3,0l-1.1,24.3-1.7,38.2-.4,8.8a.6.6,0,0,0,.6.6l11,.2,26.2.3,31.7.5,27.4.3,9.1.2c1.4,0,2.8.1,4.3,0h.2a.6.6,0,1,0,0-1.2Z"/><path class="cls-8" d="M307.4,1323.7l11.3,223.5h64.1s28.2-339.3,15.4-387-90.8-9.6-90.8-9.6Z"/><path class="cls-9" d="M306.8,1150.6v167.9c0,3.5.1,7,.2,10.5l1.8,33.6,2.6,52.3,2.9,57.3,2.5,48.5L318,1546v1.2a.6.6,0,0,0,.6.6h64.1a.6.6,0,0,0,0-1.2H318.7l.6.6-.9-17.9-2.2-44-2.8-56.4-2.8-55-2-39.2c-.2-4.1-.6-8.2-.6-12.3V1150.6a.6.6,0,0,0-1.2,0Z"/><polygon class="cls-5" points="195.6 1368.1 155.3 1330.6 167.9 1301.9 214.3 1335 195.6 1368.1"/><polygon class="cls-6" points="70.4 1354.7 134.3 1256.6 185.7 1300.3 153 1344.1 131.4 1329.3 70.4 1354.7"/><path d="M112,1343.1l-7.3-13.7-1-1.9c-.4-.7-1.5-.1-1.1.6l7.3,13.7,1,2c.4.7,1.5.1,1.1-.7Z"/><path d="M122.4,1337.6l-7.3-13.7-1-1.9c-.4-.7-1.5-.1-1.1.6l7.3,13.7,1,2c.4.7,1.5,0,1.1-.7Z"/><path d="M127.5,1332.4q-1.4,6.6-2.1,13.2a73.8,73.8,0,0,0-.5,10.5c.1,2.7.4,5.7,1.7,8.1a5.2,5.2,0,0,0,5.5,2.6,5.2,5.2,0,0,0,4.4-3.8c.8-2.4.5-5.2.1-7.7a61.5,61.5,0,0,0-2.5-9.6,110.3,110.3,0,0,0-5.4-13.4c-.4-.8-1.5-.1-1.1.6,1.6,3.3,2.9,6.6,4.2,10,2,5.4,4.2,11.5,3.9,17.3-.1,1.8-.6,4-2.4,4.9a4.1,4.1,0,0,1-5.2-.9c-1.5-2.1-1.8-5-1.9-7.4a62.5,62.5,0,0,1,.3-9.7,143.2,143.2,0,0,1,2.2-14.4C128.9,1332,127.7,1331.6,127.5,1332.4Z"/><path d="M147.2,1355.3l-16.2-21-2.3-3c-.5-.7-1.6-.1-1.1.6l16.2,21.1,2.3,3c.5.6,1.6,0,1.1-.7Z"/><path class="cls-7" d="M121.8,1275.8a19.8,19.8,0,0,0,6.9,8.5c9.1,6.5,21.2,3.6,27-6.4a22.5,22.5,0,0,0,1.2-2.1l-1.1-.9c-.4.7-.7,1.5-1.2,2.3-5.4,9.2-16.7,11.9-25.2,5.9a19.4,19.4,0,0,1-6.7-8.6Z"/><path d="M71,1355l6.3-9.7,15.3-23.4,18.5-28.4L127,1269l5.2-8.1,1.7-2.5c.2-.4.7-.8.8-1.3l.2-.2-1,.2,17.3,14.7,27.7,23.5,6.4,5.4c.6.6,1.5-.3.9-.8l-17.4-14.8-27.7-23.5-6.3-5.4a.7.7,0,0,0-1,.1l-6.4,9.8-15.2,23.4-18.5,28.4-16,24.5-5.2,8c-.8,1.3-1.8,2.5-2.5,3.8v.2c-.5.7.6,1.3,1.1.6Z"/><path class="cls-8" d="M380.5,1176.2l-38.5,3.4v.4l-61.2-.9-35.1,150.3L208,1316.8l-27.4,53.3c27.4,50.8,96.6,84.8,129.8,22.2,19.4-36.5,36.5-102.4,47.4-151l14.8-8.9Z"/><path class="cls-9" d="M368.3,1234.7l-9.8,4.5c-.5.3-.9.4-1.1.9s-.1,1-.2,1.4q-1.5,8.6-3.3,17.1c-2.1,10.5-4.5,20.9-7.1,31.3-3.4,13.3-7.1,26.5-11.3,39.5a443.3,443.3,0,0,1-15.8,42.1c-2.9,6.7-6.1,13.3-9.5,19.8a77,77,0,0,1-11.5,16.8c-7.5,8.2-17.1,14.2-28,16.3s-21.2.6-31.1-2.9a98.3,98.3,0,0,1-29.8-17.5,121.7,121.7,0,0,1-23.9-27.2c-1.5-2.5-3-5-4.4-7.6v.6l9.1-17.8,14.6-28.4,3.3-6.5-.7.3,33,11,4.7,1.6c.8.3,1.1-.9.4-1.2l-33-11-4.7-1.6a.6.6,0,0,0-.7.3l-10.8,21.1-14.9,28.9a21,21,0,0,0-1.3,2.6c-.3.8.3,1.4.6,2.1l3,5a125,125,0,0,0,14.3,18.7c10.4,11.1,22.9,20.6,37,26.3s26.9,7.2,40.2,3.3c15-4.5,26.3-16,33.9-29.3a233.4,233.4,0,0,0,12.6-26.2q5.7-13.4,10.5-27c6-17.3,11.1-35,15.6-52.7,3.2-12.6,6-25.2,8.5-38,.6-3.1,1.2-6.2,1.7-9.4a9,9,0,0,0,.3-1.6c-.1,0-.4.3-.2.3s.8-.3.9-.4l3.8-1.8,5.7-2.6c.7-.4.1-1.4-.6-1.1Z"/><path class="cls-9" d="M237.6,1366.8l1.2-5.1,3.2-13.6,4.7-20.1,5.7-24.7,6.3-26.9,6.4-27.2,5.9-25.4,5.1-21.5,3.5-15.4c.6-2.4,1.3-4.8,1.8-7.3v-.3a.6.6,0,0,0-1.2-.3l-1.1,5-3.2,13.7-4.7,20.1-5.8,24.6-6.3,26.9-6.4,27.2-5.9,25.5-5,21.4-3.6,15.4c-.6,2.4-1.2,4.9-1.7,7.3,0,.1-.1.2-.1.3s1,1.1,1.2.4Z"/><path class="cls-9" d="M279,1237.3a31.7,31.7,0,0,0,22.9-.4,29.5,29.5,0,0,0,15.2-15.1,30.3,30.3,0,0,0,2.5-12.2c0-.8-1.3-.8-1.2,0a29,29,0,0,1-7.4,19.3,27.4,27.4,0,0,1-19.1,9,31.9,31.9,0,0,1-12.6-1.8c-.7-.2-1,1-.3,1.2Z"/><path class="cls-5" d="M127.7,902s-31.9-60.8-34.9-73,4.9-13,8.2-4.4c0,0-3.5-8-1.2-10.4s6.7,2.5,9.5,9.6c0,0-6.6-12.3-3.7-15s7.5,3.5,10.6,11.2c0,0-5.7-12.6-2.2-15.2s11.3,6.6,18.9,27.9c0,0-4-18.5.5-20.1s10.8,26,14.3,36.6S163,885.8,163,885.8Z"/><path class="cls-10" d="M99.7,823c2.5,7.2,5.1,14.2,8,21.2.1.5.9.3.7-.2-2.8-7-5.5-14-8-21.2-.2-.4-.9-.2-.7.2Z"/><path class="cls-10" d="M106.9,819.8l8.3,18.9,1.2,2.7c.1.4.8,0,.6-.4l-8.3-18.9-1.2-2.7c-.2-.4-.8-.1-.6.4Z"/><path class="cls-10" d="M113.6,815.1a224.3,224.3,0,0,1,9.2,23.5c.2.5.9.3.7-.2a219.2,219.2,0,0,0-9.2-23.7c-.2-.4-.9,0-.7.4Z"/><path class="cls-10" d="M126.7,850.8a11.8,11.8,0,0,1,.1-5.6,14.9,14.9,0,0,1,2.8-4.9c2-2.7,3.7-5.8,3.6-9.3a.4.4,0,0,0-.8,0,11.5,11.5,0,0,1-1.4,5.7,37.6,37.6,0,0,1-3.2,4.6A12.8,12.8,0,0,0,126,851c.1.5.8.3.7-.2Z"/><path class="cls-11" d="M335.8,1004.4s-76-14.1-112.1-52.9c-42.1-45.3-56-73.5-56-73.5l-47.6,23.8s27.7,180.1,174.9,203.5l50.5-92Z"/><path class="cls-12" d="M124.7,922.9l53.2-28.1A177.1,177.1,0,0,1,167.7,878l-47.6,23.8S121.3,909.9,124.7,922.9Z"/><path class="cls-6" d="M185.4,1044.5a200.9,200.9,0,0,0,34.9,31.5,178.4,178.4,0,0,0,44.4,22.5,183.7,183.7,0,0,0,30.1,7.4c.3,0,.6,0,.7-.3l5-9.1,12.1-22,14.6-26.6,12.6-23,4.2-7.5c.6-1.2,1.4-2.4,1.9-3.6s.1-.1.1-.2a.6.6,0,0,0-.1-.8l-6.1-5.5-3.2-3-.8-.5a21.4,21.4,0,0,0-2.7-.6l-5.9-1.3a312.1,312.1,0,0,1-44.3-14c-18.7-7.5-37.2-17-52.3-30.5a166.2,166.2,0,0,1-12.4-12.8c-4.7-5.2-9.2-10.4-13.7-15.7-7-8.4-13.8-17-20.1-25.9a252.1,252.1,0,0,1-16-25c0-.1-.1-.2-.1-.3s-1.5-.1-1.1.6c3.5,7.2,8.1,13.9,12.7,20.5,5.6,8.1,11.5,16,17.7,23.6,8.5,10.6,17.3,20.9,26.7,30.6,14,14.6,32.2,24.9,50.6,32.9a304.1,304.1,0,0,0,47.4,16.1c4,1,8,2,12.1,2.8l1,.2h.2c-.4-.1-.2-.1.1.2l7.4,6.8,1.9,1.7v-.7l-5.1,9.1-12,22-14.6,26.6-12.7,23-4.1,7.5-1.3,2.4a4.7,4.7,0,0,0-.7,1.2c0,.1-.1.1-.1.2l.7-.3a179.8,179.8,0,0,1-50.5-15.8,182.2,182.2,0,0,1-40-26.9,198.6,198.6,0,0,1-18.3-18.4c-.5-.6-1.4.3-.9.9Z"/><path class="cls-5" d="M437.8,904.6l6.4-37.5s-8.8-21.2-10.6-27.7.6-11.4,5.9-7c3.2,2.7,7.1,9,9.3,14.9,2.1-8.3,4.2-22.8,4.2-22.8l26.4,24.1c7.1,24.1-6.7,68.1-6.7,68.1Z"/><path class="cls-10" d="M449.5,847.9a66.3,66.3,0,0,1,6.1,5.7,20.9,20.9,0,0,1,4,6.7,30.2,30.2,0,0,1,1.7,14.9c-.1.5.7.5.7,0a30.4,30.4,0,0,0-1.8-15.5,24.7,24.7,0,0,0-3.5-6.1,65.6,65.6,0,0,0-6.7-6.2c-.3-.3-.9.2-.5.5Z"/><path class="cls-11" d="M478.1,914.8l-45-13.8-34.8,86.9,4.1-10.4-66.7,39.7s19.9,98.6,43.2,89.2,66.8-44.8,80.8-79C476.1,987.1,478.1,914.8,478.1,914.8Z"/><path class="cls-12" d="M433.1,901l-6.5,16.2L477,934.7c1.1-12,1.1-19.9,1.1-19.9Z"/><path class="cls-6" d="M432.5,900.8l-3.5,8.6-8.3,20.8-10.1,25.1L402,977l-2.9,7.2a20.2,20.2,0,0,0-1.4,3.4h0c-.3.8.9,1.1,1.2.4l3.4-8.7,8.3-20.8,10.1-25,8.7-21.7,2.8-7.2a16.3,16.3,0,0,0,1.4-3.4v-.2c.3-.7-.9-1.1-1.2-.3Z"/><path class="cls-6" d="M402.1,977l-22.6,13.4-35.9,21.4-8.2,4.9c-.3.1-.3.4-.3.7,1.1,5.6,2.5,11.2,3.8,16.7,3,11.9,6.3,23.6,10.4,35.1a185.1,185.1,0,0,0,6.9,17.4,70.6,70.6,0,0,0,8,13.5c2.2,3,5,5.9,8.7,7.1s8.5-1,12.3-3a150.3,150.3,0,0,0,23.5-15.3,208.2,208.2,0,0,0,24.7-22.2c2-2.1,3.9-4.2,5.7-6.4.6-.6-.3-1.5-.8-.8a213.9,213.9,0,0,1-24.1,23.5,194.4,194.4,0,0,1-24.1,17.1,96.3,96.3,0,0,1-10.1,5.2,10.2,10.2,0,0,1-5.1,1.1c-3.4-.4-6.3-3-8.5-5.5a62,62,0,0,1-7.9-12.4c-2.6-5.4-4.9-11-7-16.6a354.7,354.7,0,0,1-10.6-35.1c-1.1-4.3-2.1-8.6-3.1-12.9l-.9-4.3c-.2-.7-.3-1.6-.5-2.2a.4.4,0,0,1-.1-.3l-.3.7,22.6-13.5,35.9-21.4,8.2-4.9a.6.6,0,1,0-.6-1Z"/><path class="cls-11" d="M288.8,1048.5c-17.5,44-25.3,159.9-25.3,159.9,87.2,15.2,146.9-3,146.9-3s.3-61.4-12.4-116.4c-17.9-77.4-50-94.1-50-94.1Z"/><path class="cls-6" d="M347.7,995.4c3.4,1.8,6.5,4.8,9.3,7.6,8.5,8.5,15.2,19,20.7,29.7,10,19.6,16.4,40.8,21,62.2a523.3,523.3,0,0,1,9.6,71.7c.9,12.7,1.5,25.4,1.5,38.2v.6l.5-.6-6.6,1.7c-6.1,1.4-12.4,2.5-18.6,3.5-9.8,1.5-19.7,2.5-29.5,3.1a389.6,389.6,0,0,1-85.6-4.3l-6.3-1,.4.6.9-11.9c.8-9.9,1.8-19.9,2.8-29.8,1.4-13.3,2.9-26.6,4.7-39.9s4.1-27.3,6.8-40.9c2.3-11.4,4.9-22.9,8.9-33.9l1.2-3.3c.3-.8-.9-1.1-1.2-.4-4.2,10.6-6.8,21.7-9.2,32.8-2.8,13.4-5,26.9-7,40.5s-3.5,26.9-5,40.4c-1.1,10.5-2.1,21.1-3,31.6-.3,3.3-.5,6.6-.8,9.9a38.3,38.3,0,0,0-.3,4.7v.2a.8.8,0,0,0,.4.6,424.7,424.7,0,0,0,47.7,5.5,381.2,381.2,0,0,0,40,.1c10.4-.5,20.7-1.4,30.9-2.9,6.8-.9,13.6-2.1,20.3-3.6l5.8-1.4,2.5-.7h.1a.6.6,0,0,0,.4-.6c.1-10.8-.4-21.5-1-32.3a583.8,583.8,0,0,0-8.3-69.7c-4.3-22.6-10.5-45-20.3-65.9-5.6-11.9-12.4-23.5-21.4-33.2a65.6,65.6,0,0,0-7.7-7.2,32.8,32.8,0,0,0-3.8-2.7h-.2c-.7-.3-1.3.7-.6,1.1Z"/><path class="cls-12" d="M355.2,1033.7l3.3,16.9c.4,2.1,2.8,3.6,4.6,2.9a4.3,4.3,0,0,0,2.7-5.1l-3.3-16.9a3.8,3.8,0,0,0-4.7-2.9,4.3,4.3,0,0,0-2.6,5.1Z"/><path class="cls-12" d="M324.3,1048c-.2,7.1-.1,14.1.1,21.2.1,2.2,1.7,4.3,3.8,4.1a3.9,3.9,0,0,0,3.8-4.1c-.3-7.1-.3-14.1-.1-21.2,0-2.2-1.8-4.2-3.8-4.1a4.1,4.1,0,0,0-3.8,4.1Z"/><path class="cls-12" d="M347.5,1079.3c.5,6.1,1.1,12.2,1.6,18.3.2,2.1,1.6,4.2,3.8,4.1a4.1,4.1,0,0,0,3.8-4.1c-.6-6.1-1.1-12.2-1.6-18.3-.2-2.2-1.6-4.3-3.8-4.2a4.1,4.1,0,0,0-3.8,4.2Z"/><path class="cls-12" d="M379,1096.2c1,7.6,2.1,15.1,3.1,22.7a3.9,3.9,0,0,0,4.7,2.9c2.1-.8,2.9-2.8,2.6-5.1-1-7.6-2.1-15.1-3.1-22.7a3.9,3.9,0,0,0-4.7-2.9c-2.1.8-2.9,2.8-2.6,5.1Z"/><path class="cls-12" d="M312.6,1105.2c-.7,7.2-1.1,14.5-1.4,21.7-.1,2.2,1.8,4.3,3.8,4.2a4.1,4.1,0,0,0,3.7-4.2c.3-7.2.8-14.5,1.5-21.7a4,4,0,0,0-3.8-4.1c-2.2.1-3.6,1.8-3.8,4.1Z"/><path class="cls-12" d="M288.7,1077.4l-1.4,18.2a3.9,3.9,0,0,0,3.7,4.2c2.2-.1,3.6-1.9,3.8-4.2l1.5-18.2c.1-2.2-1.9-4.3-3.8-4.2s-3.6,1.8-3.8,4.2Z"/><path class="cls-12" d="M288.1,1135.8c-.6,6.9-1.1,13.8-1.6,20.7a3.9,3.9,0,0,0,3.7,4.2,4.1,4.1,0,0,0,3.8-4.2c.6-6.9,1.1-13.8,1.6-20.7a3.9,3.9,0,0,0-3.8-4.1c-2.2.1-3.6,1.8-3.7,4.1Z"/><path class="cls-12" d="M338,1132.4l.9,18.1c.1.9.1,1.7.2,2.6s1.6,4.3,3.8,4.2a4.2,4.2,0,0,0,3.8-4.2c-.4-6-.7-12.1-1-18.1-.1-.9-.1-1.7-.2-2.6s-1.6-4.3-3.8-4.2a4,4,0,0,0-3.7,4.2Z"/><path class="cls-12" d="M373.3,1153.4l.9,16.8c.1,2.2,1.6,4.3,3.7,4.1a3.9,3.9,0,0,0,3.8-4.1l-.9-16.8c-.1-2.2-1.6-4.3-3.8-4.2a3.9,3.9,0,0,0-3.7,4.2Z"/><path class="cls-12" d="M310,1175c-.3,5-.3,9.9-.2,14.9.1,2.2,1.7,4.3,3.8,4.2a4.1,4.1,0,0,0,3.8-4.2,148.1,148.1,0,0,1,.2-14.9c.1-2.2-1.8-4.3-3.8-4.2s-3.6,1.9-3.8,4.2Z"/><path class="cls-12" d="M393.9,1177.4c.2,4.8.6,9.7,1.1,14.5a4.9,4.9,0,0,0,1.1,2.9,3.6,3.6,0,0,0,2.7,1.2,4,4,0,0,0,3.8-4.1c-.5-4.8-1-9.7-1.1-14.5-.1-2.2-1.7-4.2-3.8-4.1a4.1,4.1,0,0,0-3.8,4.1Z"/><path class="cls-12" d="M352,1180.1v17.3c0,2.2,1.7,4.3,3.8,4.2a4.1,4.1,0,0,0,3.7-4.2v-17.3c0-2.2-1.7-4.3-3.7-4.2a4.1,4.1,0,0,0-3.8,4.2Z"/><path class="cls-12" d="M279.5,1180.3l-.6,14.7v2.2a4,4,0,0,0,3.8,4.1,4.1,4.1,0,0,0,3.8-4.1l.6-14.7c0-.8.1-1.5.1-2.2a4,4,0,0,0-3.8-4.1,4.1,4.1,0,0,0-3.8,4.1Z"/><path class="cls-13" d="M358.5,1005.2c0,9.1-10.8,16.6-24.2,16.6s-24.2-7.5-24.2-16.6,10.8-16.6,24.2-16.6S358.5,996,358.5,1005.2Z"/><path class="cls-6" d="M357.9,1005.2c-.1,8.2-8.5,13.2-15.6,15-8.6,2.1-19.2.9-26.2-4.9a13.8,13.8,0,0,1-5.3-8.9,12.3,12.3,0,0,1,3.4-9.6c6-6.5,16-8.4,24.5-7.3s19,6.1,19.2,15.7a.6.6,0,0,0,1.2,0c-.1-8.7-8.5-14.2-16.1-16.2-9.2-2.3-20.4-1-27.9,5.3a14.6,14.6,0,0,0-5.5,9.5,13,13,0,0,0,3.3,10.1c6.2,7.3,17.3,9.4,26.3,8.1s19.8-6.7,19.9-16.8A.6.6,0,1,0,357.9,1005.2Z"/><path class="cls-5" d="M315.4,958l1.4,19.1v1.2l1.7,21.9c.6,7.9,7,13.8,14.2,13.1l8.3-.7c7.3-.7,12.7-7.7,12.1-15.6l-1.5-19.3Z"/><path class="cls-5" d="M374.4,957l-2.5-29c-1.2-14.2-11.5-24.8-22.8-23.6L332,906.1c-11.3,1.2-19.6,13.7-18.4,27.9l2.5,29,.3,2.4a24.4,24.4,0,0,0-.1,2.7l1.2,13.1,28.9,7.9-.3-3.2,9.9-1C367.3,983.7,375.6,971.2,374.4,957Z"/><path class="cls-10" d="M316.9,948.3s1.7-24.9,3.1-21.4c1.9,5,4.2,33.6,9.4,35.6,7,2.6,8.4-10.2,21.8-12.1s21.7,4.6,23.5,10.4-.9,16.7-7.5,21.9-20.9,5.4-20.9,5.4-13.4.1-19.7-8S316.9,948.3,316.9,948.3Z"/><path d="M338.6,941a4,4,0,0,0,4.2,3.8,4.2,4.2,0,0,0,3.5-4.6,4,4,0,0,0-4.2-3.8A4.1,4.1,0,0,0,338.6,941Z"/><path d="M363.7,937.8a3.4,3.4,0,0,0,3.6,3.2,3.6,3.6,0,0,0-.6-7.2A3.6,3.6,0,0,0,363.7,937.8Z"/><path class="cls-13" d="M361.5,955.4s-1.4,6.4-5.4,7.3-7.7-3.8-8.3-7.7Z"/><path class="cls-10" d="M356.2,935.6a45.4,45.4,0,0,0,5.4,9.6l.2-.5-4.2.9c-.5.1-.3.8.2.7l4.2-.9c.2,0,.3-.3.2-.5a61.4,61.4,0,0,1-5.4-9.7c-.2-.4-.8,0-.6.4Z"/><path class="cls-10" d="M337.2,936.1a19,19,0,0,1,3.7-2c.2,0,.3-.2.3-.4s-.3-.4-.5-.3a14.7,14.7,0,0,0-3.9,2.1.4.4,0,0,0-.1.5c.1.1.4.2.5.1Z"/><path class="cls-10" d="M364.5,931.4h4.1c.2,0,.3-.2.3-.4a.3.3,0,0,0-.3-.3,18.8,18.8,0,0,0-4.1-.1.4.4,0,1,0,0,.7Z"/><path class="cls-10" d="M319.8,953.2l1.2-23.1s56.1,5.9,71.8-26.7c14.5-30.4-6-44.7-16.2-39.2s-14.7,14.3-14.7,14.3,7.7-14.1-1.3-15.2-17.8,9.8-22,20.7c0,0-38,.1-48.7,26.5s1.3,43.1,26.8,66.6l.9-14.7Z"/><path class="cls-5" d="M294.6,957.7c.8,7.5,7,12.9,13.9,12s11.9-7.7,11.1-15.2-7.1-12.9-14-12S293.8,950.2,294.6,957.7Z"/><path class="cls-10" d="M314.3,957.1c-.1-3.1-1.7-6.5-4.8-7.6a9,9,0,0,0-4.6,0c-.5.1-.3.9.2.8,2.3-.6,4.7-.4,6.4,1.4a8.7,8.7,0,0,1,1.9,4.4,3.4,3.4,0,0,1,.1,1c.1.5.8.5.8,0Z"/><path class="cls-14" d="M659.8,874l-7.4-23.1s4.1-23.5,4.5-30.4-3.1-11.3-7.5-5.4c-2.5,3.5-5,10.8-5.9,17.2a103.3,103.3,0,0,1-3.5-13.7l-27.2,24.3c.2,20.5,16.3,51.3,16.3,51.3Z"/><path class="cls-5" d="M642.3,832.8a58.8,58.8,0,0,0-5.2,7.8,23.6,23.6,0,0,0-2.3,7.4,31.9,31.9,0,0,0,1.6,15.6c.1.5.9.3.7-.2a30.8,30.8,0,0,1-1.5-15.6,25.3,25.3,0,0,1,2.3-7.2,88.8,88.8,0,0,1,5-7.5c.3-.4-.4-.7-.6-.3Z"/><path class="cls-13" d="M665.9,863.5S728.7,965.1,794.1,988l-33.9,78.7s-93.1-46-120.8-122.3l-18.8-50.2Z"/><path class="cls-8" d="M665.4,863.8c2.1,3.5,4.5,7,6.8,10.4,5.9,8.7,12.1,17.3,18.6,25.7,8.6,11.2,17.7,22.1,27.4,32.6a306.1,306.1,0,0,0,33.7,31.7c11.5,9,23.8,17.1,37.3,22.6l4.7,1.8-.4-.9-3.3,7.8-8.1,18.7-9.8,22.8-8.4,19.6-2.9,6.5-.8,2c-.1.3-.5.8-.5,1.1h0l.8-.2a48.2,48.2,0,0,1-5-2.7c-4.6-2.5-9.1-5.1-13.6-7.9-6.5-4-12.9-8.3-19.2-12.7q-11.7-8.4-22.5-17.7a248,248,0,0,1-22.8-21.9,210.8,210.8,0,0,1-20.8-26.3,162.5,162.5,0,0,1-15.7-30.1c-1.6-4.2-3.2-8.5-4.7-12.8l-8.6-22.8-6.1-16.3-.3-.9-.3.7,15.4-10.4,24.3-16.5,5.6-3.8c.7-.4.1-1.5-.6-1.1l-15.3,10.4-24.4,16.5-5.6,3.8c-.2.2-.4.5-.3.7l4.5,12.1,8.6,23,5.6,14.9a163.2,163.2,0,0,0,12.5,26.4,201.5,201.5,0,0,0,19.7,27.1,261.8,261.8,0,0,0,22.7,23.2c7.3,6.6,14.9,12.8,22.7,18.6s13.5,9.7,20.5,14.2c5,3.2,10.1,6.3,15.3,9.2,2.4,1.4,4.9,2.8,7.5,4l.3.2c.3.1.7.1.8-.2l3.4-7.9,8.1-18.7,9.8-22.8,8.4-19.6,2.8-6.5a29.2,29.2,0,0,0,1.4-3.1h0c.2-.4.1-.8-.3-.9-13.6-4.8-26.1-12.4-37.5-21.1a271.2,271.2,0,0,1-34.2-31,420,420,0,0,1-28.2-32.8c-6.8-8.7-13.4-17.6-19.6-26.7l-5.7-8.5c-.8-1.3-1.6-2.7-2.5-4h-.1C666,862.5,664.9,863.1,665.4,863.8Z"/><path class="cls-8" d="M690.4,925.6a11,11,0,0,0-13.5-.4A13.5,13.5,0,0,0,672,939a12.4,12.4,0,0,0,10.2,9.6c5.6.7,10.7-3.3,12.4-9.1A13.8,13.8,0,0,0,690.4,925.6Zm-6.5,20.1a9,9,0,0,1-8.8-6.1,10.6,10.6,0,0,1,2.2-10.9,8.4,8.4,0,0,1,10.1-1.6,10.4,10.4,0,0,1,4.5,11.6A9.4,9.4,0,0,1,683.9,945.7Z"/><path class="cls-8" d="M712.9,964.5a10.7,10.7,0,0,0-13.5-.4,13.5,13.5,0,0,0-4.9,13.8,12.4,12.4,0,0,0,10.2,9.6c5.6.7,10.7-3.4,12.4-9.1A13.7,13.7,0,0,0,712.9,964.5Zm-6.5,20a9.1,9.1,0,0,1-8.8-6,10.7,10.7,0,0,1,2.2-11,8.4,8.4,0,0,1,10.1-1.5,10.3,10.3,0,0,1,4.5,11.5C713.3,981.4,710.2,984.3,706.4,984.5Z"/><path class="cls-8" d="M753.4,972.9a11,11,0,0,0-13.5-.4,13.8,13.8,0,0,0-4.8,13.8,12.2,12.2,0,0,0,10.1,9.7c5.6.6,10.8-3.4,12.4-9.1A13.9,13.9,0,0,0,753.4,972.9ZM747,993a9,9,0,0,1-8.8-6.1,10.4,10.4,0,0,1,2.2-10.9,8.4,8.4,0,0,1,10.1-1.5c3.8,2.1,5.6,7,4.5,11.5S750.7,992.8,747,993Z"/><path class="cls-8" d="M764.2,1012.4a11,11,0,0,0-13.5-.4,13.5,13.5,0,0,0-4.8,13.8,12.2,12.2,0,0,0,10.1,9.6c5.6.7,10.8-3.3,12.4-9.1A13.8,13.8,0,0,0,764.2,1012.4Zm-6.5,20c-3.7.3-7.3-2.2-8.8-6a10.6,10.6,0,0,1,2.3-11,8.4,8.4,0,0,1,10-1.5,10.2,10.2,0,0,1,4.5,11.6A9.1,9.1,0,0,1,757.7,1032.4Z"/><path class="cls-8" d="M686.1,892.7c-.1.1-.1.2-.1.4-1.1,3.9-4.3,6.8-8,7a9,9,0,0,1-8.8-6.1,10.6,10.6,0,0,1,2.2-10.9,9.1,9.1,0,0,1,5.9-2.6c-.7-.9-1.3-1.9-1.9-2.8a10.2,10.2,0,0,0-4.4,1.9,13.5,13.5,0,0,0-4.9,13.8,12.2,12.2,0,0,0,10.2,9.7c5.1.6,9.8-2.7,11.8-7.7Z"/><path class="cls-8" d="M647,887.4c-1.1,3.9-4.3,6.8-8,7a8.9,8.9,0,0,1-8.8-6c-.1-.2-.1-.4-.2-.6l-2.4,1.6a12,12,0,0,0,9.7,8c5.5.7,10.7-3.3,12.4-9.1a14,14,0,0,0-2.5-12.1l-2.4,1.6A10.6,10.6,0,0,1,647,887.4Z"/><path class="cls-8" d="M646.6,915a11,11,0,0,0-13.5-.4,12.1,12.1,0,0,0-3.4,4l1.4,3.8a10.1,10.1,0,0,1,2.5-4.4,8.5,8.5,0,0,1,10.1-1.5,10.4,10.4,0,0,1,4.5,11.5c-1.1,3.9-4.3,6.8-8,7a8.2,8.2,0,0,1-4.8-1.2l1.5,3.9a7.6,7.6,0,0,0,1.6.3c5.5.7,10.7-3.3,12.3-9.1A13.6,13.6,0,0,0,646.6,915Z"/><path class="cls-8" d="M727.7,941.5a8.3,8.3,0,0,1-5.1,2.3,9,9,0,0,1-8.8-6.1A10.5,10.5,0,0,1,715,928l-2-2.1a13.8,13.8,0,0,0-2.3,11.2,12.2,12.2,0,0,0,10.2,9.7,10.5,10.5,0,0,0,8.8-3.3C729.1,942.8,728.4,942.2,727.7,941.5Z"/><path class="cls-8" d="M665.1,962.2a11,11,0,0,0-13.5-.4,12.2,12.2,0,0,0-2.9,3.1l1.6,2.9a7.4,7.4,0,0,1,1.7-2.5,8.4,8.4,0,0,1,10.1-1.6,10.4,10.4,0,0,1,4.5,11.6,9.4,9.4,0,0,1-7.2,6.8l1.9,2.7a12.9,12.9,0,0,0,8-8.7A13.8,13.8,0,0,0,665.1,962.2Z"/><path class="cls-8" d="M722.8,1014.7a11,11,0,0,0-13.5-.4,13.5,13.5,0,0,0-4.9,13.8l.6,1.9c3.3,2.7,6.6,5.3,9.8,7.7,5.5.6,10.5-3.4,12.1-9.1A13.8,13.8,0,0,0,722.8,1014.7Zm-6.5,20a8.9,8.9,0,0,1-8.8-6,10.7,10.7,0,0,1,2.2-11,8.5,8.5,0,0,1,10.1-1.5,10.3,10.3,0,0,1,4.5,11.5C723.2,1031.6,720,1034.5,716.3,1034.7Z"/><path class="cls-8" d="M788.2,993.1a9,9,0,0,1-8.8-6.1,11,11,0,0,1-.5-5.7l-2.5-1.4a14.3,14.3,0,0,0-.1,6.5,12.2,12.2,0,0,0,10.2,9.7,9,9,0,0,0,4.3-.5l1.8-4.2A8.8,8.8,0,0,1,788.2,993.1Z"/><polygon class="cls-14" points="990.5 1337.4 938.6 1366.6 925.5 1327.4 978.6 1303.4 990.5 1337.4"/><polygon class="cls-13" points="1076.7 1377.8 1025.8 1262.8 965 1298.3 992.1 1350.5 1017.1 1339.3 1076.7 1377.8"/><path class="cls-11" d="M1077.2,1377.5l-5.1-11.5-12.1-27.5-14.7-33.1-12.7-28.8-4.2-9.4a37.1,37.1,0,0,0-1.9-4.6c-.1,0-.1-.1-.1-.2a.8.8,0,0,0-.9-.2l-20.5,12-32.8,19.2-7.5,4.4a.7.7,0,0,0-.3.8l9.2,17.7,14.6,28.1,3.4,6.5a.6.6,0,0,0,.8.2l21.9-9.8,3.1-1.4h-.6l20.1,12.9,32.1,20.8,7.4,4.7c.6.5,1.3-.6.6-1l-10.9-7-22.9-14.8-20.6-13.4-4.8-3.1c-.4-.2-.6-.4-1.1-.2a23.6,23.6,0,0,0-2.8,1.2l-21.5,9.8-.6.2.9.2-9.2-17.6-14.6-28.1-3.4-6.5-.2.9,20.6-12.1,32.7-19.1,7.5-4.4-.8-.2,5.1,11.4,12.1,27.5,14.7,33.2,12.7,28.8,4.1,9.4c.7,1.5,1.2,3.1,2,4.5v.2C1076.5,1378.9,1077.5,1378.2,1077.2,1377.5Z"/><line class="cls-15" x1="1035.6" y1="1358" x2="1046.8" y2="1343.3"/><path class="cls-6" d="M1035.9,1358.2l9.8-12.9,1.5-1.9c.2-.3-.4-.7-.7-.3l-9.8,12.8-1.4,1.9c-.3.4.3.8.6.4Z"/><line class="cls-15" x1="1025.6" y1="1350.2" x2="1036.9" y2="1335.5"/><path class="cls-6" d="M1026,1350.4l9.8-12.9,1.4-1.8c.3-.4-.3-.8-.6-.4l-9.9,12.9-1.4,1.8c-.3.4.4.8.7.4Z"/><path class="cls-6" d="M1019.6,1343.3c.2,4.2.2,8.4.1,12.5a74.4,74.4,0,0,1-.9,10.5,24.5,24.5,0,0,1-2.4,8.5c-1.2,2.1-2.8,3.2-5.3,2.7a5.1,5.1,0,0,1-3.9-4.6,20.1,20.1,0,0,1,1.5-8.1,69.9,69.9,0,0,1,4.2-9.2,115.1,115.1,0,0,1,7.4-12.1c.3-.4-.4-.7-.7-.3-2.4,3.5-4.7,7.2-6.8,11a82.5,82.5,0,0,0-4.5,9.5c-1,2.8-2,5.8-1.8,8.7s.9,4.2,2.9,5.2a5.3,5.3,0,0,0,6-.3c2-1.8,2.8-4.6,3.4-7.1a61.8,61.8,0,0,0,1.5-10.5,128.2,128.2,0,0,0,0-16.4C1020.3,1342.9,1019.6,1342.9,1019.6,1343.3Z"/><path class="cls-6" d="M997.1,1364.1l20.4-18.9,2.9-2.6a.4.4,0,0,0-.6-.6l-20.3,18.9-2.9,2.7c-.3.3.2.8.5.5Z"/><path class="cls-7" d="M999.6,1298.9c6.8-3.6,14.9-.6,18.3,6.9s.5,16.4-6.3,20-15,.6-18.3-6.9S992.8,1302.5,999.6,1298.9Z"/><path class="cls-13" d="M1000,1277.8c6.2,12.6,20.3,17.7,32.1,11.4a20.2,20.2,0,0,0,4.1-2.9l-10.4-23.5Z"/><path class="cls-11" d="M999.5,1278.2c5.1,10.2,16.5,16.6,27.8,13.5a25.6,25.6,0,0,0,9.4-4.9.8.8,0,0,0,.1-.8l-9.1-20.7-1.3-2.9a.8.8,0,0,0-.9-.2l-22.5,13.2-3.3,1.9c-.7.4-.1,1.5.6,1.1l22.6-13.2,3.2-1.9-.8-.2,9.1,20.6,1.3,3v-.8a22.4,22.4,0,0,1-20,4.6c-6.8-1.8-12.1-6.8-15.2-13C1000.2,1276.8,999.1,1277.4,999.5,1278.2Z"/><path class="cls-11" d="M878.3,1395.4s-16.8-5.5-36-38.5-79.5-125.6-79.5-125.6l96.6-92.1,43.5,172.5,29.4,3.8,16.9,56S895.8,1407.9,878.3,1395.4Z"/><path class="cls-13" d="M767.7,1233.8v-7.2l-2.7,2.7v5.3l2.7,4.2Z"/><path class="cls-13" d="M931.6,1382.2l2.8-1.5v-22.6h10.7l-.9-3.1h-9.8v-32.5l-2.1-7h-.7v3H901v-14l-2.7-11v25H867.7v-33.5h28.4l-.7-3.1H867.7v-33.5h19.2l-.8-3H867.7v-33.6h10l-.8-3h-9.2v-33.6h.7l-3.5-13.8v10.8H834.4V1163l-2.8,2.7v6.4h-6.7l-3.2,3h9.9v33.6H801.1v-13.9l-2.8,2.7v11.2H786.6l-3.2,3h14.9v33.6H771.9l2,3h24.4v33.5h-2.8l2,3.1h.8v1.3c.9,1.4,1.8,2.9,2.8,4.3v-5.6h30.5v33.5H818.8c.6,1.1,1.3,2.1,1.9,3.1h10.9V1339l2.8,4.6v-22.1h30.5V1355H841.3l1,1.9a7.5,7.5,0,0,1,.7,1.2h21.9v28.2l2.8,2.4v-30.6h30.6v33.5H871.5a46.3,46.3,0,0,0,5.1,3.1h21.7v1.9l2.7-.8v-1.1h3.8c2.6-.9,5.2-2,7.9-3.1H901v-33.5h30.6v24.1Zm-100-100.4H801.1v-33.5h30.5Zm0-66.2v29.7H801.1v-33.6h30.5Zm33.3,79.5v23.3H834.4v-33.5h30.5Zm0-13.3H834.4v-33.5h30.5Zm0-66.2v29.7H834.4v-33.6h30.5Zm0-6.9H834.4v-33.6h30.5ZM898.3,1355H867.7v-33.5h30.6Zm2.7,0v-33.5h30.6V1355Z"/><path class="cls-6" d="M931.7,1315.7l5.7,18.9,9.1,30.1,2,7,.3-.7c-4.4,3-8.9,5.7-13.5,8.4a171.2,171.2,0,0,1-28.9,14,66.8,66.8,0,0,1-14.6,3.8c-3.9.4-8.1.4-11.7-1.4a65.7,65.7,0,0,1-12.2-7.7c-10.9-9.1-18.9-21-26-33.2-4.8-8.3-9.9-16.5-15-24.6-6.3-10.3-12.8-20.5-19.3-30.6s-13.1-20.6-19.7-30.9L772,1244.2c-2.8-4.2-5.5-8.4-8.2-12.6a2.1,2.1,0,0,1-.4-.6.6.6,0,0,0-1.1.6c2,3,3.9,6,5.8,9l14.7,22.7,19.4,30.1c6.7,10.5,13.3,21,19.9,31.5,5.5,8.8,11,17.6,16.3,26.6,3.4,5.6,6.6,11.2,10.3,16.6a114.8,114.8,0,0,0,13.7,16.7,68.1,68.1,0,0,0,10.3,8.3,43,43,0,0,0,5.2,2.8,18.3,18.3,0,0,0,2.4,1.3,14.3,14.3,0,0,0,5.4,1.3c4.5.5,9.2-.4,13.6-1.5,10.5-2.8,20.5-7.6,30.1-12.8,6.5-3.6,12.9-7.4,19.1-11.5l1-.6a1.1,1.1,0,0,0,.3-.7l-5.8-19-9-30.1-2.1-7c-.3-.7-1.5-.4-1.2.4Z"/><polygon class="cls-14" points="786.3 1547.2 779.2 1451.9 820.8 1449.7 820.3 1543.9 786.3 1547.2"/><polyline class="cls-13" points="776.2 1573.9 768.8 1588.5 735.2 1651.3 840.9 1593.1 837.7 1516.1 772.8 1526.7 771.8 1582.5"/><path class="cls-11" d="M775.6,1573.6c-2.4,4.9-4.8,9.8-7.4,14.6-1.7,3.2-3.4,6.5-5.2,9.7l-11,20.7-11.3,21.1-4,7.5c-.6,1.2-1.4,2.4-1.9,3.6s-.1.1-.1.2.3,1.2.8.8l10.6-5.8,25.2-13.8,30.5-16.9,26.4-14.5,8.8-4.8c1.3-.8,2.8-1.4,4.1-2.3h.1a.7.7,0,0,0,.4-.5l-1.1-26.1-1.8-41.4-.4-9.5c0-.4-.3-.6-.8-.6l-21.9,3.6-34.9,5.7-8.1,1.3a.8.8,0,0,0-.4.6l-.4,19-.5,29.9v6.9a.6.6,0,1,0,1.2,0l.4-18.9.5-30v-6.9l-.4.6,21.9-3.5,34.9-5.8,8.1-1.3-.8-.6,1.1,26.1,1.7,41.4.4,9.5.3-.6-10.6,5.8-25.1,13.9L774.3,1629l-26.4,14.6-8.7,4.8-2.7,1.5a3.9,3.9,0,0,0-1.4.8h-.2l.9.8,4.9-9.1,10.8-20.4,11.4-21.3,6.3-11.7,7.2-14.2.3-.7c.4-.7-.7-1.3-1.1-.6Z"/><line class="cls-15" x1="752.3" y1="1608" x2="767.1" y2="1618.9"/><path class="cls-6" d="M752.1,1608.3l13,9.6,1.8,1.3c.4.3.7-.3.4-.6l-13-9.6-1.8-1.4c-.4-.2-.7.4-.4.7Z"/><line class="cls-15" x1="759.3" y1="1597.3" x2="774" y2="1608.2"/><path class="cls-6" d="M759.1,1597.6l12.9,9.6,1.8,1.4a.4.4,0,0,0,.4-.7l-12.9-9.6-1.8-1.3c-.4-.3-.8.3-.4.6Z"/><path class="cls-6" d="M765.5,1590.7a120.9,120.9,0,0,1-12.1.7,68.8,68.8,0,0,1-10.1-.4,22.3,22.3,0,0,1-8.4-2.2,4.8,4.8,0,0,1-2.5-5.6,4.5,4.5,0,0,1,4.3-3.9c2.7-.4,5.4.4,7.9,1.2a71.9,71.9,0,0,1,9,3.9,106.4,106.4,0,0,1,11.7,7c.4.3.8-.4.4-.7a105.8,105.8,0,0,0-10.8-6.4,64.6,64.6,0,0,0-9.3-4.2,21.2,21.2,0,0,0-8.3-1.6,5.6,5.6,0,0,0-5.1,2.9,6.1,6.1,0,0,0,.3,6.4c1.6,1.9,4.3,2.7,6.6,3.3a51.4,51.4,0,0,0,10.3,1,107.9,107.9,0,0,0,16.1-.7C766,1591.4,766,1590.6,765.5,1590.7Z"/><path class="cls-6" d="M744.4,1568.4l19.1,20.1,2.8,2.9c.3.4.9-.2.5-.5l-19.2-20.2-2.7-2.9c-.3-.3-.9.2-.5.6Z"/><path class="cls-7" d="M819.1,1549.7a16,16,0,1,1-16.2-15.4A15.9,15.9,0,0,1,819.1,1549.7Z"/><path class="cls-13" d="M839.2,1559.5c-15.2.9-26.1,13.4-26.8,28.4-.4,7.1,3.2,17.1,3.6,18.9l24.9-13.7Z"/><path class="cls-11" d="M839.2,1558.9a28.4,28.4,0,0,0-21.3,11.6,31.6,31.6,0,0,0-5.5,24.7c.7,4,2.1,7.8,3,11.8a.6.6,0,0,0,.9.3l21.8-11.9,3.1-1.7a.8.8,0,0,0,.4-.6l-1.6-29.4-.2-4.2c0-.8-1.3-.8-1.2,0l1.5,29.5.2,4.1.3-.5-21.8,11.9-3.1,1.8.9.3c-.7-3-1.8-5.9-2.5-9a32.2,32.2,0,0,1-.7-13.1c1.3-8.1,5.7-15.6,12.6-20a25.9,25.9,0,0,1,13.2-4.3C840,1560.1,840,1558.8,839.2,1558.9Z"/><polygon class="cls-11" points="769 1463 829.9 1463.6 864.7 1162.4 748.9 1166.7 769 1463"/><path class="cls-13" d="M845.8,1303.2v22.5l3-25.6h-.2v-33.5h4.1l.3-3.1h-4.4V1230h8.3l.3-3h-8.6v-33.6h12.5l.4-3H848.6V1163h-2.8v27.3H815.3v-26.2h-2.8v26.1H781.9v-24.9h-2.7v24.8H750.5l.2,3h28.5V1227H753l.2,3h26v33.5H755.5l.2,3.1h23.5v33.5H758l.2,3.1h21v33.5H760.5l.2,3.1h18.5v33.5H762.9l.3,3.1h16v33.5H765.4l.2,3.1h13.6v33.5H767.9l.2,3h11.1v13.6h2.7v-13.6h30.6v13.9h2.8v-14h16.2l.4-3H815.3V1413h20.5l.3-3.1H815.3v-33.5H840l.3-3.1h-25v-33.5h28.9l.4-3.1H815.3v-33.5Zm-30.5-87.7v-22.1h30.5V1227H815.3Zm0,14.5h30.5v33.5H815.3Zm0,67.8v-31.2h30.5v33.5H815.3Zm-2.8,148.7H781.9V1413h30.6Zm0-36.6H781.9v-33.5h30.6Zm0-46v9.4H781.9v-33.5h30.6Zm0-27.2H781.9v-33.5h30.6Zm0-59.9v23.3H781.9v-33.5h30.6Zm0-13.3H781.9V1230h30.6Zm0-66.2V1227H781.9v-33.6h30.6Z"/><path class="cls-6" d="M803.2,1180.9a53,53,0,0,0,4.4,12.5c3.7,7.5,9.3,14.4,17.1,17.8a29.9,29.9,0,0,0,17,1.5c.8-.1.5-1.3-.3-1.2a29.1,29.1,0,0,1-15.2-1.1,27.1,27.1,0,0,1-10.5-7.2c-4.8-5.1-8-11.6-10.1-18.2a36,36,0,0,1-1.2-4.4c-.1-.8-1.3-.4-1.2.3Z"/><path class="cls-6" d="M769,1463.6l20.6.2,32.7.4h7.6a.6.6,0,0,0,.6-.6l1-8.1,2.5-21.9,3.7-32.4,4.6-39.6,5-43.2,5-43.8,4.8-40.8,3.9-34.3,2.9-24.9c.4-3.9,1-7.8,1.3-11.7a.9.9,0,0,0,.1-.5c.1-.8-1.2-.8-1.2,0l-1,8.1-2.5,21.9-3.8,32.4-4.5,39.6-5,43.2-5.1,43.8-4.7,40.8-3.9,34.3-2.9,24.9-.9,7.7c-.2,1.3-.4,2.7-.5,4v.5l.6-.6-20.5-.2-32.8-.3H769a.6.6,0,0,0,0,1.2Z"/><path class="cls-13" d="M742.1,1169c-.2-4.1-.4-8.3-.4-12.5-1.4-72.9,17.2-143.7,39.5-170.7,7.1-8.7,14.2-11.2,21.6-9.1,34.5,9.9,65.9,80.5,67.7,176.9.1,4.2.1,8.4.1,12.5Z"/><path class="cls-8" d="M742.6,1169a434.2,434.2,0,0,1,.9-54.7,417.9,417.9,0,0,1,7.5-51,285.9,285.9,0,0,1,12.1-42.5c4.1-10.8,8.9-21.5,15.6-30.9,3.8-5.3,8.5-10.9,15-12.8,4.9-1.4,9.8,0,14.2,2.1,7.3,3.4,13.4,9,18.6,15.2a121.7,121.7,0,0,1,16.6,26.3,221.8,221.8,0,0,1,13.5,36.2,316.9,316.9,0,0,1,9.3,44.3,401.7,401.7,0,0,1,4.1,51.5c.1,4.4.1,8.9.1,13.4l.5-.5-12.8.3-30.7.7-37.1.8-32.1.8-10.6.2a41.7,41.7,0,0,0-5,.1h-.2a.5.5,0,1,0,0,1l12.8-.3,30.7-.7,37.1-.8,32.1-.7,10.5-.3a43.4,43.4,0,0,0,5.1-.1h.2a.5.5,0,0,0,.5-.5,441.3,441.3,0,0,0-2.8-53.9,351.2,351.2,0,0,0-8.3-46.5,247.1,247.1,0,0,0-12.8-38.4,144.9,144.9,0,0,0-16.3-29c-5.1-6.9-11.1-13.3-18.5-17.8a35.8,35.8,0,0,0-10-4.4c-6.6-1.7-12.8.8-17.7,5.2a58.8,58.8,0,0,0-10.4,13.4,132.9,132.9,0,0,0-7.9,15.5,240.6,240.6,0,0,0-13.5,40.5,391.8,391.8,0,0,0-9,49.5,437,437,0,0,0-2.8,54.9c.1,4.6.3,9.3.5,13.9A.5.5,0,1,0,742.6,1169Z"/><path class="cls-8" d="M796.6,1017.9a11.1,11.1,0,0,0-13,3.8,14.1,14.1,0,0,0-1.1,14.8,11.5,11.5,0,0,0,12.3,6c5.5-1,9.4-6.5,9.5-12.6A13.1,13.1,0,0,0,796.6,1017.9Zm-1,21.2a8.4,8.4,0,0,1-10-3,10.7,10.7,0,0,1-.7-11.2,8.8,8.8,0,0,1,9.3-4.6c4.2.9,7.2,4.9,7.3,9.6S799.2,1037.8,795.6,1039.1Z"/><path class="cls-8" d="M766.8,1110.1a11.1,11.1,0,0,0-13,3.8,14.1,14.1,0,0,0-1.1,14.8,11.5,11.5,0,0,0,12.3,6c5.5-1.1,9.4-6.5,9.5-12.6A13.1,13.1,0,0,0,766.8,1110.1Zm-1,21.2a8.6,8.6,0,0,1-10-3,10.8,10.8,0,0,1-.7-11.2,8.6,8.6,0,0,1,9.3-4.6c4.2.9,7.2,4.9,7.3,9.6S769.4,1129.9,765.8,1131.3Z"/><path class="cls-8" d="M794.2,1140a11,11,0,0,0-13,3.8,14.1,14.1,0,0,0-1.1,14.8,11.3,11.3,0,0,0,12.2,6c5.5-1.1,9.4-6.6,9.5-12.6A12.9,12.9,0,0,0,794.2,1140Zm-1,21.2a8.5,8.5,0,0,1-10-3,10.8,10.8,0,0,1-.7-11.2,8.5,8.5,0,0,1,9.2-4.6c4.3.9,7.3,4.9,7.4,9.6A10,10,0,0,1,793.2,1161.2Z"/><path class="cls-8" d="M841.4,1122.9a11.1,11.1,0,0,0-13,3.8,14.1,14.1,0,0,0-1.1,14.8,11.5,11.5,0,0,0,12.3,6c5.5-1.1,9.4-6.5,9.5-12.6A13.1,13.1,0,0,0,841.4,1122.9Zm-1,21.2a8.6,8.6,0,0,1-10-3,10.8,10.8,0,0,1-.7-11.2,8.8,8.8,0,0,1,9.3-4.6c4.2.9,7.2,4.9,7.3,9.6S844,1142.7,840.4,1144.1Z"/><path class="cls-8" d="M773.1,1010.1c5.5-1,9.4-6.5,9.5-12.6a14.4,14.4,0,0,0-3.5-9l-1.7,2.4a10.3,10.3,0,0,1,2.4,6.6c0,4.1-2.3,7.9-5.8,9.3a8.3,8.3,0,0,1-5.6.1l-1.2,2.7A10.7,10.7,0,0,0,773.1,1010.1Z"/><path class="cls-8" d="M760.8,1058.1c5.5-1.1,9.4-6.5,9.5-12.6s-3.1-10.1-7.6-12a10.4,10.4,0,0,0-4.2-.8c-.4,1-.7,2.1-1,3.1a8.2,8.2,0,0,1,2.7.1,9.6,9.6,0,0,1,7.3,9.6,9.8,9.8,0,0,1-5.8,9.2,8.5,8.5,0,0,1-8.9-1.7c-.2,1-.5,2.1-.7,3.1A10.8,10.8,0,0,0,760.8,1058.1Z"/><path class="cls-8" d="M756.1,1158a12.9,12.9,0,0,0-7.6-12,10.9,10.9,0,0,0-6.9-.4v3.2a7.6,7.6,0,0,1,4.5-.4c4.2.9,7.2,4.9,7.3,9.6a10,10,0,0,1-5.9,9.2,8,8,0,0,1-5.5.2,9.2,9.2,0,0,1,.1,1.6l8.6-.2A13.2,13.2,0,0,0,756.1,1158Z"/><path class="cls-8" d="M870.6,1165.1v-3.5a7.2,7.2,0,0,1-2.4,1.4,8.5,8.5,0,0,1-10-3,10.8,10.8,0,0,1-.7-11.2c1.9-3.4,5.6-5.4,9.2-4.6a8.6,8.6,0,0,1,3.6,1.7c0-1.2-.1-2.4-.1-3.6l-1-.5a11.1,11.1,0,0,0-13,3.8,14.1,14.1,0,0,0-1.1,14.8,11.8,11.8,0,0,0,7.5,5.9h5.6A8.8,8.8,0,0,0,870.6,1165.1Z"/><path class="cls-8" d="M738.1,1176.8l138.3-3.2a2.9,2.9,0,0,0,2.7-3.1l-.2-13.7a2.9,2.9,0,0,0-2.9-3l-138.2,3.1a2.9,2.9,0,0,0-2.8,3.1l.3,13.7A3,3,0,0,0,738.1,1176.8Z"/><path class="cls-16" d="M738.3,1175.9a4.4,4.4,0,0,0,2.2.7v-19.8a5.7,5.7,0,0,0-2.2.7Z"/><polygon class="cls-16" points="747.9 1176.5 750.1 1176.5 750.1 1156.6 747.9 1156.7 747.9 1176.5"/><polygon class="cls-16" points="757.5 1176.3 759.7 1176.3 759.7 1156.4 757.5 1156.4 757.5 1176.3"/><polygon class="cls-16" points="767.1 1176.1 769.3 1176 769.3 1156.2 767.1 1156.2 767.1 1176.1"/><polygon class="cls-16" points="776.7 1175.9 778.9 1175.8 778.9 1156 776.7 1156 776.7 1175.9"/><polygon class="cls-16" points="786.3 1175.7 788.5 1175.6 788.5 1155.7 786.3 1155.8 786.3 1175.7"/><polygon class="cls-16" points="795.8 1175.4 798.1 1175.4 798.1 1155.5 795.8 1155.6 795.8 1175.4"/><polygon class="cls-16" points="805.4 1175.2 807.6 1175.2 807.6 1155.3 805.4 1155.4 805.4 1175.2"/><polygon class="cls-16" points="815 1175 817.2 1175 817.2 1155.1 815 1155.1 815 1175"/><polygon class="cls-16" points="824.6 1174.8 826.8 1174.7 826.8 1154.9 824.6 1154.9 824.6 1174.8"/><polygon class="cls-16" points="834.2 1174.6 836.4 1174.5 836.4 1154.7 834.2 1154.7 834.2 1174.6"/><polygon class="cls-16" points="843.8 1174.4 846 1174.3 846 1154.4 843.8 1154.5 843.8 1174.4"/><polygon class="cls-16" points="853.4 1174.1 855.6 1174.1 855.6 1154.2 853.4 1154.3 853.4 1174.1"/><polygon class="cls-16" points="862.9 1173.9 865.2 1173.9 865.2 1154 862.9 1154 862.9 1173.9"/><path class="cls-16" d="M872.5,1153.8v19.9h.9l1.3-.2v-19.4a4.7,4.7,0,0,0-1.7-.3Z"/><path class="cls-14" d="M725.4,1091.5s-53-18.1-61.5-24-3.9-11.5,2.8-8.1c0,0-6.5-2.8-6.3-5.9s5.5-2.7,11.2,0c0,0-10.8-3.5-10.4-7.2s6.6-2.6,12.7.3c0,0-10.4-4.4-9.5-8.3s10.7-3.1,27.1,5.5c0,0-12.6-9.1-10.6-13.1s20.9,9.5,28.9,14.1,29.4,13.4,29.4,13.4Z"/><path class="cls-5" d="M665,1059.3c5.5,2.9,11,5.7,16.5,8.3.5.2.9-.4.4-.7-5.6-2.6-11.1-5.4-16.5-8.3a.4.4,0,0,0-.4.7Z"/><path class="cls-5" d="M667.8,1052.5l15.5,6.7,2.2.9c.4.2.8-.4.3-.6l-15.5-6.7-2.1-.9c-.5-.2-.9.4-.4.6Z"/><path class="cls-5" d="M669.7,1045.2a166,166,0,0,1,18.5,9,.4.4,0,1,0,.3-.7,159.3,159.3,0,0,0-18.6-9c-.5-.2-.7.5-.2.7Z"/><path class="cls-13" d="M893.9,1066.7c-26-62.7-90.4-91.5-90.4-91.5l4.9,48.4,13.9,28-83.6-1.5-23.2,46.4C828.6,1158.6,918.8,1126.7,893.9,1066.7Z"/><path class="cls-8" d="M803.2,975.7a76,76,0,0,1,9.4,4.9,211.5,211.5,0,0,1,22.8,14.8,200.4,200.4,0,0,1,28.2,25.4,165.8,165.8,0,0,1,25.4,36.3c4.9,9.7,9.2,20.2,8.5,31.3a35.3,35.3,0,0,1-9.8,22.2c-6.5,7-15.3,11.5-24.3,14.4-11.7,3.7-24,4.9-36.2,4.7a195.5,195.5,0,0,1-45.6-6.7,288.4,288.4,0,0,1-52.4-19.9c-4.5-2.2-9-4.6-13.5-7l.2.7,13.3-26.6,7.9-15.9,1.2-2.3a9.1,9.1,0,0,0,.7-1.4c.1-.5-.2.1-.3,0s.6,0,.7,0l26.6.5,41.2.7c8.3.2,16.6.5,24.8.5h.4a.5.5,0,0,0,0-1l-9.3-.2-22.5-.4-27-.5-23.4-.4h-7.7c-1.2,0-2.5-.2-3.7-.1h-.1a.5.5,0,0,0-.5.3l-7.8,15.7-12.5,24.9-2.8,5.8a.4.4,0,0,0,.1.6,301.2,301.2,0,0,0,54.1,23.5,211.5,211.5,0,0,0,47.8,9.8c13,1,26.3.7,39.1-2.2,9.8-2.2,19.5-6,27.4-12.3a38.2,38.2,0,0,0,13.9-20.6c2.2-9,.8-18.4-2.5-26.9-5.4-14.1-13.5-27.2-22.9-39a194,194,0,0,0-28.6-28.7,222.4,222.4,0,0,0-25.3-17.9,153.9,153.9,0,0,0-13.8-7.5l-.7-.3c-.5-.2-1.1.6-.5.9Z"/><path class="cls-8" d="M808,1023.8l12.1,24.5,1.8,3.5c.3.6,1.1.1.8-.5l-12.1-24.5-1.7-3.5c-.3-.5-1.2,0-.9.5Z"/><path class="cls-8" d="M777.7,1072.5a10.1,10.1,0,0,1-5,9.8,8.3,8.3,0,0,1-10.2-2,10.6,10.6,0,0,1-1.7-11.1,8.9,8.9,0,0,1,8.8-5.5c4.3.4,7.7,4.1,8.1,8.8a1.4,1.4,0,1,0,2.8-.3,12.8,12.8,0,0,0-8.6-11.2,11.4,11.4,0,0,0-12.7,5.2,14.1,14.1,0,0,0,.2,14.8,11.3,11.3,0,0,0,12.7,4.8c5.4-1.7,8.8-7.5,8.4-13.6A1.4,1.4,0,1,0,777.7,1072.5Z"/><path class="cls-8" d="M802.1,1105.5c.3,4.1-1.7,8.1-5.1,9.8a8.3,8.3,0,0,1-10.2-2,10.6,10.6,0,0,1-1.7-11.1,8.9,8.9,0,0,1,8.9-5.5c4.2.5,7.6,4.2,8.1,8.8a1.4,1.4,0,1,0,2.7-.2c-.5-5.4-3.9-9.8-8.6-11.2s-9.9.7-12.7,5.1a14.1,14.1,0,0,0,.2,14.8,11.3,11.3,0,0,0,12.7,4.8c5.4-1.7,8.9-7.5,8.4-13.5A1.4,1.4,0,1,0,802.1,1105.5Z"/><path class="cls-8" d="M838.4,1080.9a10,10,0,0,1-5.1,9.7,8.3,8.3,0,0,1-10.2-2,10.7,10.7,0,0,1-1.7-11,8.9,8.9,0,0,1,8.9-5.6c4.3.5,7.6,4.2,8.1,8.9a1.4,1.4,0,1,0,2.7-.3c-.5-5.3-3.9-9.8-8.6-11.2a11.2,11.2,0,0,0-12.6,5.1,13.9,13.9,0,0,0,.1,14.8,11.5,11.5,0,0,0,12.8,4.8c5.3-1.7,8.8-7.5,8.3-13.5A1.4,1.4,0,1,0,838.4,1080.9Z"/><path class="cls-8" d="M873.4,1095.7c.3,4.1-1.6,8.1-5,9.8a8.5,8.5,0,0,1-10.3-2,10.6,10.6,0,0,1-1.6-11.1,8.8,8.8,0,0,1,8.8-5.5c4.3.4,7.6,4.2,8.1,8.8a1.4,1.4,0,1,0,2.8-.2c-.6-5.4-3.9-9.8-8.7-11.2s-9.9.7-12.6,5.1a14.1,14.1,0,0,0,.2,14.8,11.3,11.3,0,0,0,12.7,4.8c5.4-1.7,8.8-7.5,8.4-13.5A1.4,1.4,0,1,0,873.4,1095.7Z"/><path class="cls-8" d="M869.9,1054.3a10,10,0,0,1-5.1,9.7,8.3,8.3,0,0,1-10.2-2,10.5,10.5,0,0,1-1.7-11,8.9,8.9,0,0,1,8.9-5.6c4.2.5,7.6,4.2,8.1,8.9a1.4,1.4,0,1,0,2.7-.3c-.5-5.3-3.9-9.8-8.6-11.2a11.4,11.4,0,0,0-12.7,5.1,14.3,14.3,0,0,0,.2,14.9,11.4,11.4,0,0,0,12.7,4.7c5.4-1.6,8.9-7.5,8.4-13.5A1.4,1.4,0,1,0,869.9,1054.3Z"/><path class="cls-8" d="M821.3,999.1a10.3,10.3,0,0,1-5.1,9.8,8.6,8.6,0,0,1-10.2-2,10.7,10.7,0,0,1-1.7-11.1,8.9,8.9,0,0,1,8.9-5.5c4.3.4,7.6,4.1,8.1,8.8a1.4,1.4,0,1,0,2.7-.3,12.8,12.8,0,0,0-8.6-11.2,11.3,11.3,0,0,0-12.7,5.2,14.1,14.1,0,0,0,.2,14.8,11.4,11.4,0,0,0,12.8,4.7c5.3-1.6,8.8-7.5,8.3-13.5A1.4,1.4,0,1,0,821.3,999.1Z"/><path class="cls-8" d="M822,1024.9a10.9,10.9,0,0,0-11.3,3.4v.5l1.2,2.5a8.8,8.8,0,0,1,7.9-3.8c4.2.4,7.6,4.2,8.1,8.8s-1.7,8.1-5.1,9.8a8.5,8.5,0,0,1-3.1.9l1.4,2.8,1.1-.2c5.4-1.7,8.8-7.5,8.4-13.5S826.7,1026.3,822,1024.9Z"/><path class="cls-8" d="M863.3,1019.8a6.5,6.5,0,0,1-2.1,1.6,8.5,8.5,0,0,1-10.3-2,10.5,10.5,0,0,1-1.6-11,5.1,5.1,0,0,1,.9-1.6l-2.2-1.9-.3.4a14.1,14.1,0,0,0,.2,14.8,10.9,10.9,0,0,0,17.4,1.8Z"/><path class="cls-8" d="M892.4,1086.9a10.6,10.6,0,0,1-1.7-11.1,9.6,9.6,0,0,1,4.8-4.9c-.3-.9-.7-1.8-1-2.8a12.3,12.3,0,0,0-5.4,4.7,14.1,14.1,0,0,0,.2,14.8,11.5,11.5,0,0,0,8.2,5.1c.1-1,.3-1.9.4-3A8.2,8.2,0,0,1,892.4,1086.9Z"/><path class="cls-8" d="M831.8,1115.4a11.1,11.1,0,0,0-12.6,5.1,14,14,0,0,0-1.9,9.2l2.9.2a10.1,10.1,0,0,1,.6-6.4,8.7,8.7,0,0,1,8.8-5.5c4.3.4,7.6,4.2,8.1,8.8a11.3,11.3,0,0,1-.2,3.2l2.8-.2c.1-1.1.2-2.1.2-3.2C839.9,1121.2,836.5,1116.8,831.8,1115.4Z"/><path class="cls-8" d="M752.7,1114a14.5,14.5,0,0,0,1.6-7.7,12.8,12.8,0,0,0-8.6-11.2,11.3,11.3,0,0,0-12.7,5.2,13,13,0,0,0-1.7,4.4l2.6,1.2a7.7,7.7,0,0,1,.7-2.6,9.1,9.1,0,0,1,8.8-5.6,9.5,9.5,0,0,1,8.1,8.9,10.4,10.4,0,0,1-1.5,6.3Z"/><path class="cls-8" d="M732.7,1085.8c5.3-1.7,8.8-7.5,8.3-13.5a13,13,0,0,0-7.9-11l-1.4,2.7a9.8,9.8,0,0,1,6.6,8.5c.3,4.1-1.7,8.1-5.1,9.8a8.4,8.4,0,0,1-9.8-1.6l-1.3,2.7A11.1,11.1,0,0,0,732.7,1085.8Z"/><path class="cls-8" d="M740.6,1051.9a11.2,11.2,0,0,0,12.7,4.7,11.8,11.8,0,0,0,6.9-6.1H757a9.2,9.2,0,0,1-3.1,2.8,8.7,8.7,0,0,1-10.3-2l-.7-1h-3.3A16.2,16.2,0,0,0,740.6,1051.9Z"/><path class="cls-8" d="M802.5,1064.7c5.3-1.6,8.7-7.4,8.4-13.3h-2.8v.2c.3,4-1.6,8-5,9.7a8.3,8.3,0,0,1-10.2-2,10.4,10.4,0,0,1-2.5-8.2h-2.7a13.9,13.9,0,0,0,2.1,8.9A11.3,11.3,0,0,0,802.5,1064.7Z"/><rect class="cls-14" x="783.9" y="933.3" width="26.6" height="51.94" transform="translate(1594.4 1918.4) rotate(180)"/><path class="cls-8" d="M839.3,896.7c1,4.5,5.2,7.1,9.2,5.9s6.4-5.7,5.3-10.1a7.5,7.5,0,0,0-9.2-5.9C840.6,887.8,838.2,892.3,839.3,896.7Z"/><path class="cls-5" d="M862.5,890c-6.6-7.7-10.5-18.2-11.6-28.2a46.9,46.9,0,0,1,2.1-20.4,43.5,43.5,0,0,1,9.3-16.3,19,19,0,0,1,10.4-5.8,26.3,26.3,0,0,1,10.8.6c6.7,1.7,13.2,5,20.2,5.7,2.3.2,4.9.1,6.8-1.1a11.2,11.2,0,0,0,3.7-4.1c2.8-4.5,4.2-9.8,5.7-14.7,3.8-13,7.3-27,16.1-37.7a32.6,32.6,0,0,1,17-11.1c8.7-2.1,17.8-.8,25.9,2.7,18.2,8.1,32.2,26.4,35.6,45.9a47.7,47.7,0,0,1-4.6,30.4,47.2,47.2,0,0,1-21.3,20.6c-7.4,3.5-15.6,5-23.6,6.5-6.2,1.1-13.1,2-18.3,5.7a13.3,13.3,0,0,0-4.8,6.4c-1.5,3.7-1.2,7.8-2.1,11.7A32.5,32.5,0,0,1,926,906.7c-15.9,10.4-36.7,5.4-51.1-5.1A75.8,75.8,0,0,1,862.5,890c-.5-.6-1.4.3-.9.9,12.9,15,33,26.3,53.3,21.8A34.8,34.8,0,0,0,935,900a34.4,34.4,0,0,0,5.5-11.2,33.5,33.5,0,0,0,1.3-6.9,54.3,54.3,0,0,1,.9-5.6c1.9-6.1,7.7-8.8,13.4-10.2,7.6-2,15.4-2.7,23-4.8s17-6.6,23.4-13.1a49,49,0,0,0,13.6-28.3c2.5-20.5-8.4-41.3-24.3-53.9-7.4-5.8-16.2-10.1-25.7-11.1a35.4,35.4,0,0,0-22.7,4.8c-12.1,7.7-17.6,22.2-21.6,35.2-1.9,6.1-3.5,12.3-5.7,18.3-1.3,3.6-3,8.6-6.6,10.4s-5.5.9-8,.4a76.1,76.1,0,0,1-10.3-3.1c-6.9-2.2-14.4-4.6-21.6-2.1a22.8,22.8,0,0,0-10.2,7.7,50.3,50.3,0,0,0-8.5,17.2c-3.2,12.2-1.3,25.3,4.1,36.6a46.9,46.9,0,0,0,6.6,10.6C862.1,891.5,863,890.6,862.5,890Z"/><path class="cls-13" d="M811.7,934.8c-.2.7-.4,1.4-.7,2.2a9.9,9.9,0,0,1-.3,2.4l1-4.6L780.9,951v-.2l-8.9-2.5c-10.3-3-16.2-15.9-13.1-28.7l6.3-26.3c3.1-12.8,14-20.9,24.2-17.9l15.5,4.4c10.2,3,16.1,15.9,13.1,28.7Z"/><path class="cls-14" d="M784.9,952.1,772,948.3c-10.3-3-16.2-15.9-13.1-28.7l6.3-26.3c3.1-12.8,14-20.9,24.2-17.9l15.5,4.4c10.2,3,16.1,15.9,13.1,28.7l-6.3,26.3c-.2.7-.4,1.4-.7,2.2a9.9,9.9,0,0,1-.3,2.4"/><path class="cls-14" d="M764.3,899.4a59.9,59.9,0,0,1-7.3,8.2c-3.3,2.9-3.3,2.4-3.3,2.4s5.2,4.8,7.7,5.7S764.3,899.4,764.3,899.4Z"/><path d="M780.1,911.1a3.6,3.6,0,0,1-3.9,3.5,3.7,3.7,0,0,1-3.2-4.2,3.7,3.7,0,0,1,3.9-3.5A3.9,3.9,0,0,1,780.1,911.1Z"/><path class="cls-17" d="M796.4,929.2c-.5,6.3-5.6,10.9-11.3,10.3s-9.8-6.2-9.3-12.4,5.6-10.8,11.3-10.2S796.9,923,796.4,929.2Z"/><path class="cls-5" d="M758.4,933.1a7.3,7.3,0,0,0,3.3,1.2c2.8.3,5.4-1.1,7.4-3,.3-.4-.2-.9-.5-.6-1.9,1.8-4.3,3.2-6.9,2.8a6.6,6.6,0,0,1-2-.6l-.6-.3s-.3-.2-.1-.1-.9.3-.6.6Z"/><path class="cls-5" d="M762.7,900.8a30.1,30.1,0,0,1-9.2,8.9.3.3,0,0,0-.1.5,27.1,27.1,0,0,0,5.7,4.4.4.4,0,0,0,.4-.7,22.3,22.3,0,0,1-5.5-4.2v.6a30.6,30.6,0,0,0,9.5-9.1c.3-.4-.4-.8-.7-.4Z"/><path class="cls-5" d="M777.1,902.3l5.3,7c.3.4.9,0,.6-.4l-5.2-6.9c-.3-.4-1,0-.7.3Z"/><path class="cls-5" d="M810,929l-2-8.3s-24.3-7.8-41.2-36.8,8.7-53,29.9-38.7c9.5,6.3,16.5,26,16.5,26s38,19.6,24.8,59.3c0,0-3.9,24.2-27.5,24.2Z"/><path class="cls-14" d="M826.7,932.2c-1.1,7-7.1,11.8-13.6,10.6s-10.8-7.9-9.7-14.9,7.2-11.7,13.6-10.5S827.8,925.2,826.7,932.2Z"/><path class="cls-5" d="M808.9,930.6h0a1.3,1.3,0,0,0,.1-.6l.6-1.9a5.6,5.6,0,0,1,3.4-3.5,7.1,7.1,0,0,1,4.1.2c.5.2.7-.6.2-.8-2.3-.7-4.9-.6-6.7,1.1a9.4,9.4,0,0,0-2.3,4.4,5,5,0,0,0-.2,1.2c-.1.5.8.5.8,0Z"/><path class="cls-8" d="M785.1,987.5l24.5-.3c6.4-.1,11.5-5.8,11.5-12.9h0c-.1-7-5.4-12.7-11.8-12.6l-24.5.3c-6.4,0-11.6,5.8-11.5,12.9S778.6,987.6,785.1,987.5Z"/><path class="cls-16" d="M782,987V962.4a8.5,8.5,0,0,0-2.2.9v22.8A8.5,8.5,0,0,0,782,987Z"/><path class="cls-16" d="M815.4,985.4V963.5l-2.2-1.1v24.1Z"/><path class="cls-16" d="M806.9,987.2V961.7h-2.2v25.5h2.2Z"/><path class="cls-16" d="M798.5,987.3V961.8h-2.2v25.5h2.2Z"/><path class="cls-16" d="M790.1,987.4V961.9h-2.2v25.5h2.2Z"/><path class="cls-7" d="M602.1,786.2a213.3,213.3,0,0,1,29.9-.7l5.1.4,1.2.2h.8l2.4.3,4.1,1a6.4,6.4,0,0,1,1.8.6h.4c.5.2-.4-.2-.1,0l.9.4,1.2.7c.4.3-.4-.3-.1,0l.3.2c.2.4,0,0-.2-.2s.1.1.2.2-.2-.7-.1-.2a.6.6,0,0,0,.1.4v.2c.2.3,0-.7,0-.3a14.7,14.7,0,0,0,0,2.1,1.5,1.5,0,0,0-.1.7c0,.2.1-.7,0,0l-.3,1.6a97,97,0,0,1-5.1,15.8c-2.6,6.7-5.4,13-8.5,19.6s-6.4,13.1-9.9,19.4a134.8,134.8,0,0,1-9,14.5,4.3,4.3,0,0,0-.4.7c-.3.3-.3.3-.2.1l-1.2,1.5a33.4,33.4,0,0,1-4.7,4.5,52.7,52.7,0,0,1-10.7,6.3,75.6,75.6,0,0,1-16.3,5.2h-.9l3.1,3.1,1.8-10,4.5-24,5.4-29,4.7-25.1c.8-4.1,1.6-8.1,2.3-12.2v-.2a2.5,2.5,0,0,0-4.8-1.3l-1.9,10-4.5,24.1L587.9,846l-4.6,25.1c-.8,4.1-1.6,8.1-2.3,12.2v.2a2.5,2.5,0,0,0,3,3.1,69.1,69.1,0,0,0,12.8-3.5c8.2-3.1,16.4-7.4,22.2-14.1a88.1,88.1,0,0,0,9-13.5c3.7-6.3,7-12.7,10.2-19.2s6.6-14,9.5-21.1a134.7,134.7,0,0,0,6.2-17.5c.8-3.2,2.2-8,.2-11s-4.2-3.1-6.4-3.8a44.5,44.5,0,0,0-9.4-1.8c-11.7-1.4-23.7-.9-35.5,0h-.7a2.5,2.5,0,0,0,0,5Z"/><path class="cls-7" d="M492.1,781.2a200.6,200.6,0,0,0-31-.6c-6,.4-12.9.8-18.3,3.8-1.7,1-3.1,2.2-3.5,4.2a16.2,16.2,0,0,0,.3,5.8,86.2,86.2,0,0,0,4.9,15.9q4,10.5,9,20.7c3.2,6.8,6.5,13.5,10.2,20.1a141.1,141.1,0,0,0,9.1,14.9c8.4,11.5,22.7,17.7,36.3,20.4l1,.2a2.6,2.6,0,0,0,3.1-3.1l-1.9-10-4.4-24.1-5.4-28.9-4.7-25.1c-.8-4.1-1.3-8.2-2.3-12.2V783a2.5,2.5,0,0,0-3.1-1.7,2.4,2.4,0,0,0-1.7,3l1.8,10.1,4.5,24,5.4,28.9,4.7,25.2,1.5,8.2c.3,1.3.4,2.7.8,3.9v.2l3.1-3.1a58.9,58.9,0,0,1-12.3-3.3c-7.5-2.7-15.1-6.7-20.5-12.9l-1-1.3c-.4-.4.3.5,0,0l-.2-.2-.5-.8a29.8,29.8,0,0,1-2-2.9c-1.6-2.4-3.1-4.8-4.5-7.3-3.6-6.1-6.8-12.4-10-18.7s-6.3-13.5-9-19.8a154.5,154.5,0,0,1-6.1-17.3c-.3-1.1-.6-2.2-.8-3.3l-.3-1.4c-.1-.7,0,.1,0-.1s-.1-.5-.1-.7a16.2,16.2,0,0,1,0-2.2c0,.3-.1.7,0,.2s.1-.2.1-.4-.2.4-.1.2a.2.2,0,0,1,.2-.2l-.2.2c0-.1.2-.1.2-.2s-.4.3-.1.1l1.4-.9.7-.3h.4a6.4,6.4,0,0,1,1.8-.6,33.4,33.4,0,0,1,4.3-1l4.3-.6a195.3,195.3,0,0,1,34.2.2h.7a2.6,2.6,0,0,0,2.5-2.5A2.5,2.5,0,0,0,492.1,781.2Z"/><path class="cls-7" d="M611.9,761.4H482.3s-2.4,71.8,6.7,95.8,24.6,41.6,55.8,48.4h4.6c31.1-6.8,47-25.5,55.8-48.4S611.9,761.4,611.9,761.4Z"/><path class="cls-18" d="M549.5,790l7.2,16a2.9,2.9,0,0,0,2,1.6l16,2.5a3.1,3.1,0,0,1,1.5,5.1l-11.6,12.4a3.4,3.4,0,0,0-.8,2.6l2.8,17.5c.4,2.4-2,4.3-3.9,3.1l-14.4-8.2a2.3,2.3,0,0,0-2.5,0l-14.3,8.2c-2,1.2-4.3-.7-3.9-3.1l2.7-17.5a3,3,0,0,0-.7-2.6L518,815.2c-1.6-1.7-.8-4.7,1.4-5.1l16.1-2.5a2.9,2.9,0,0,0,2-1.6l7.2-16A2.6,2.6,0,0,1,549.5,790Z"/><path class="cls-18" d="M482.5,772.9H606.4a41.7,41.7,0,0,0,5,0h.3a.6.6,0,1,0,0-1.2h-124c-1.6,0-3.3-.1-5,0h-.2a.6.6,0,0,0,0,1.2Z"/><path class="cls-13" d="M507.2,869.3a59.6,59.6,0,0,0,9.6,8.5c.8.5,1.5-.8.7-1.3l-2.7-2.1a62.5,62.5,0,0,1-6.5-6.1c-.7-.7-1.8.3-1.1,1Z"/><path class="cls-13" d="M491.3,788.4a326.1,326.1,0,0,0,2,48.4c.8,6.4,1.8,12.8,4.5,18.8.4.8,1.7.1,1.3-.8-2.4-5.4-3.4-11.2-4.1-17s-1.2-10.7-1.5-16.1c-.6-9.2-.8-18.4-.7-27.7v-5.6a.8.8,0,0,0-1.5,0Z"/><path class="cls-7" d="M548,963h-1.8c-36.6,4.1-44.3,28.3-44.3,28.3h90.4S584.5,967.1,548,963Z"/><rect class="cls-7" x="538.6" y="895.8" width="17" height="80.4"/><rect class="cls-7" x="494.1" y="991.3" width="106" height="11.68" rx="1.8"/><path class="cls-18" d="M501.9,991.9h87.3c1.1,0,2.4.1,3.5,0h.2a.7.7,0,0,0,0-1.3H505.6c-1.1,0-2.4-.1-3.5,0s-.1,0-.2,0a.7.7,0,0,0,0,1.3Z"/><path class="cls-7" d="M556.7,915H537.4c-3.8,0-6.9-3.4-6.9-7.6h0c0-4.2,3.1-7.7,6.9-7.7h19.3c3.9,0,7,3.5,7,7.7h0C563.7,911.6,560.6,915,556.7,915Z"/><path class="cls-18" d="M532.8,902.8h27.6a.7.7,0,0,0,0-1.3H532.8a.7.7,0,0,0,0,1.3Z"/><path class="cls-18" d="M538.9,915.6h16.4a.6.6,0,0,0,0-1.2H538.9a.6.6,0,1,0,0,1.2Z"/><path class="cls-18" d="M647.4,792.1v-.6a.1.1,0,0,0-.1-.1c-.1-.1-.1-.2-.2-.2h-.3c-.1,0-.2,0-.2.1h-.2c-.1.1-.2.2-.2.3a.4.4,0,0,1-.1.3h0c0,.1.1.2.1.1v.2a.7.7,0,0,0,.6.4h.3a.1.1,0,0,1,.1-.1v-.2a.4.4,0,0,0,.1-.3c0-.1,0-.1-.1-.2s0-.2-.1-.2h-.6l-.3.2h1v.2h0l-.9.4h0l-.3-.7v.2c-.1,0-.1.1,0,.2v.2c.1.1.1.2.2.2h.8Z"/><path class="cls-18" d="M655.9,782.7c-4.7-4.5-11.5-5.3-17.7-6a161.3,161.3,0,0,0-26-.5l.6.6c0-5.2-.1-10.3-.3-15.4a.7.7,0,0,0-.6-.7H482.3c-.4,0-.6.3-.7.7-.1,5.1-.2,10.3-.2,15.4l.6-.6c-7.1-.3-14.1-.3-21.2.1s-12.5,1-18.1,3.6a13,13,0,0,0-5.6,4.2c-1.7,2.6-1.8,5.8-1.5,8.8.7,6.6,3.1,12.8,5.4,18.9a372.1,372.1,0,0,0,16.5,36.4,196.6,196.6,0,0,0,10.1,17.1,51.6,51.6,0,0,0,11.1,12.6,62.6,62.6,0,0,0,15.5,8.8,65.9,65.9,0,0,0,8.6,2.7c2.8.7,6,1.7,8.9,1.3l-.7-.2a73.8,73.8,0,0,0,21.3,12.1l-.2-1a8.9,8.9,0,0,0-.9,10.5c1.7,2.7,4.4,3.5,7.4,3.5l-.6-.6v49.2l.4-.6c-14.4,3.1-29,11-35.9,24.8a22.1,22.1,0,0,0-1.2,2.7l.6-.5c-2.6,0-5.6-.5-7.4,1.9a7.1,7.1,0,0,0-1.1,4.3,8.7,8.7,0,0,0,.7,4.2c1.5,2.8,4.1,2.6,6.7,2.6H596a4.9,4.9,0,0,0,4.2-2.7,10.2,10.2,0,0,0,.5-4.3,6.2,6.2,0,0,0-1.1-4.2,5.3,5.3,0,0,0-3.9-1.8h-3.4l.6.5a28.3,28.3,0,0,0-4.2-7.6,46.8,46.8,0,0,0-16.3-14,61.5,61.5,0,0,0-16.7-5.9l.5.6V915l-.6.6c3,0,5.6-.8,7.4-3.5a8.9,8.9,0,0,0-.9-10.5l-.3,1a72.5,72.5,0,0,0,21.3-12.1l-.6.2a17.9,17.9,0,0,0,6.1-.6l6.2-1.6a65.2,65.2,0,0,0,11.9-5A52.1,52.1,0,0,0,626.2,866a238.8,238.8,0,0,0,15-27.1c4.6-9.3,8.8-18.9,12.6-28.6a89,89,0,0,0,4.6-15.8c.7-4.1.6-8.6-2.5-11.8-.6-.6-1.4.3-.9.9,3.4,3.5,2.7,8.8,1.7,13.1a122.2,122.2,0,0,1-5.5,16.8,349.3,349.3,0,0,1-14.9,32.3c-2.6,5.2-5.5,10.2-8.4,15.2a60.8,60.8,0,0,1-9.7,12.8c-7.2,6.9-16.4,11.5-26,14.1a45.7,45.7,0,0,1-8,1.7c-.6,0-1.3-.3-1.8-.1l-1.4,1.1-3.4,2.5a70.2,70.2,0,0,1-16.1,8.3.6.6,0,0,0-.3,1,7.7,7.7,0,0,1,.5,9.3c-1.5,2.1-3.7,2.7-6.1,2.7a.7.7,0,0,0-.7.6v49.2a.6.6,0,0,0,.5.6c14.2,3,28.4,10.7,35.2,24.1.4.9.8,1.7,1.1,2.5a.6.6,0,0,0,.6.5c2.7,0,6.4-.6,7.1,3a20.5,20.5,0,0,1,.1,3.5c-.1,2-1.3,3.8-3.5,3.9s-2.7,0-4,0H498.4c-2.2,0-3.6-1.7-3.7-3.9a12,12,0,0,1,.2-3.8,3.6,3.6,0,0,1,3.8-2.7h3.2a.6.6,0,0,0,.6-.5,29,29,0,0,1,3.9-7.1,47.7,47.7,0,0,1,15.9-13.7,63.5,63.5,0,0,1,16.5-5.8c.2,0,.4-.3.4-.6V915a.6.6,0,0,0-.6-.6c-2.5,0-4.6-.6-6.1-2.7a7.7,7.7,0,0,1,.4-9.3c.4-.3.2-.8-.2-1a72.3,72.3,0,0,1-17.8-9.4l-1.9-1.5c-.4-.3-.9-.9-1.3-1a2,2,0,0,0-1.1.1h-1.5l-2.1-.4c-2.7-.6-5.5-1.3-8.2-2.1a66.1,66.1,0,0,1-16.3-7.8,49.5,49.5,0,0,1-12.8-13c-8.1-11.6-14.2-24.4-20.1-37.2-3.1-6.9-6.1-13.9-8.7-21a92.6,92.6,0,0,1-3.2-10.2c-.8-3.5-1.6-7.6-.5-11.1s4.6-5.3,7.9-6.5a41.2,41.2,0,0,1,11.5-2.3,179.7,179.7,0,0,1,25.4-.4.7.7,0,0,0,.6-.7c.1-5.1.1-10.3.3-15.4l-.6.6H611.9l-.6-.6c.1,5.1.2,10.2.2,15.4a.7.7,0,0,0,.7.6,159.3,159.3,0,0,1,24.9.5c6.2.6,13.2,1.2,17.9,5.7C655.6,784.1,656.5,783.3,655.9,782.7Z"/><path class="cls-18" d="M480,860.7a104.1,104.1,0,0,1-7.2-11.4c-2.6-4.6-5-9.2-7.4-13.9a289.6,289.6,0,0,1-12.7-27.8,91.4,91.4,0,0,1-4.7-16l-.3.7c4.8-2.1,10.7-2.3,15.9-2.5a161.4,161.4,0,0,1,18.4,0l-.6-.6c.1,12,.5,23.9,1.4,35.9.8,10.1,1.8,20.7,4.9,30.4a84.7,84.7,0,0,0,9.2,18.9l.7-.9c-6.8-2.8-13.1-6.9-17.6-12.8-.5-.7-1.6-.1-1.1.6,4.7,6.2,11.2,10.4,18.4,13.4.5.2.9-.5.7-.9a78.7,78.7,0,0,1-8.7-17.7,71.3,71.3,0,0,1-3.1-12.9c-1.9-11.4-2.6-23.1-3.1-34.6-.2-6.5-.4-12.9-.5-19.4a.5.5,0,0,0-.6-.6,179.3,179.3,0,0,0-19.4,0c-5.1.2-10.8.5-15.5,2.6a.5.5,0,0,0-.3.7,73,73,0,0,0,4.2,14.5c1.6,4.6,3.6,9.1,5.6,13.6,4.3,9.5,9,18.9,14.1,28a121.9,121.9,0,0,0,8.2,13.3C479.3,861.9,480.4,861.3,480,860.7Z"/><path class="cls-18" d="M644.2,799.3c-3.7,11.6-8.9,22.8-14.3,33.8q-4.2,8.4-8.7,16.5c-2.8,4.8-5.6,9.9-9.4,13.9a45.7,45.7,0,0,1-15.2,10l.7.9a90.9,90.9,0,0,0,8.7-17.7,72.4,72.4,0,0,0,3.1-13c2-11.4,2.7-23.1,3.2-34.7.3-6.6.4-13.2.5-19.8l-.7.6c6.3-.2,12.6-.3,18.8,0s10.8.2,15.6,2.5a.7.7,0,0,0,.9-.4.6.6,0,0,1,.1-.4l-1.3-.2v.3c0,.2,0,.6.3.7h0l-.3-.7a72.7,72.7,0,0,1-2,7.7c-.2.7,1,1,1.3.3.7-2.6,1.4-5.1,1.9-7.7a.5.5,0,0,0-.3-.7h0l.3.7c0-.2.1-.4.1-.6s-1.1-.8-1.2-.1-.1.2-.1.4l.9-.4c-4.7-2.2-10.2-2.4-15.3-2.6s-13.1-.3-19.7,0a.6.6,0,0,0-.6.6c-.1,11.8-.4,23.6-1.4,35.3-.8,10.1-1.7,20.7-4.8,30.4a77.8,77.8,0,0,1-9.1,18.8c-.3.5.2,1.2.7,1a48.1,48.1,0,0,0,13.7-8.4c4.2-3.7,7.1-8.3,9.9-13A328.5,328.5,0,0,0,638,818.8a195.5,195.5,0,0,0,7.5-19.2C645.7,798.8,644.5,798.5,644.2,799.3Z"/><path class="cls-18" d="M506.2,747.3q-12.4-24-24.2-48.3l-6.6-13.7c-.3-.8-1.4-.1-1.1.6,7.7,16.3,15.7,32.4,23.9,48.5l6.9,13.5c.4.7,1.5.1,1.1-.6Z"/><path class="cls-18" d="M525.6,746l-2.1-15.6-3.3-24.7-.8-5.8c-.1-.8-1.3-.4-1.2.4l2.1,15.6,3.3,24.7.8,5.7c.1.8,1.3.5,1.2-.3Z"/><path class="cls-18" d="M547.2,745.6c.6-17.8,1.6-35.6,3.1-53.4.4-5.1.9-10.2,1.3-15.3.1-.8-1.1-.8-1.2,0-1.7,17.7-3,35.5-3.8,53.3l-.6,15.4a.6.6,0,0,0,1.2,0Z"/><path class="cls-18" d="M567.6,746.8c2.3-12.7,4.6-25.4,6.8-38.1a.6.6,0,1,0-1.2-.3c-2.2,12.7-4.5,25.4-6.8,38.1-.1.8,1.1,1.1,1.2.3Z"/><path class="cls-18" d="M590.1,749.2C595.8,731,601.7,713,608,695c.3-.7-.9-1-1.2-.3-6.3,17.9-12.2,36-17.9,54.1-.2.8,1,1.1,1.2.4Z"/><path class="cls-18" d="M606.1,749.3l13.4-22.4,1.9-3.2a.6.6,0,0,0-1.1-.6L607,745.5l-2,3.2c-.4.7.7,1.3,1.1.6Z"/><path class="cls-18" d="M485.4,749.8l-16.7-19.4c-.5-.6-1.4.3-.9.9,5.6,6.4,11.2,12.9,16.7,19.4.5.6,1.4-.3.9-.9Z"/><path class="cls-14" d="M633.5,815.9c-2.8-.4-7.4,4.3-11.6,11.4s-10.1,12.2-9.7,16.3c0,0-.2,6.4,2.8,8.5s8.3,7,11.6,4.4c1.7-1.3,1.9-4.8-.1-8.5,2,2.7,4.6,1.9,5.8.2s0-5.5-1.9-10.2c1.5,2.5,3.6,4.4,5.6,2.8s1.8-5.1.7-8.6a4.8,4.8,0,0,0,3-.5C644.2,829.1,638.7,816.8,633.5,815.9Z"/><path class="cls-5" d="M616.5,837.2c3.4,4.2,6.8,8.3,10.4,12.3.3.3.8-.2.5-.6-3.6-3.9-7-8.1-10.3-12.3-.3-.3-.8.2-.6.6Z"/><path class="cls-5" d="M623,828.8a47.3,47.3,0,0,1,8.6,12.2c.2.4.8,0,.6-.4a45.8,45.8,0,0,0-8.7-12.3c-.3-.4-.9.2-.5.5Z"/><path class="cls-5" d="M628.9,820.9a36.7,36.7,0,0,1,7.2,11.8.4.4,0,0,0,.8-.2,36.2,36.2,0,0,0-7.5-12.1c-.3-.4-.9.1-.5.5Z"/><path class="cls-5" d="M457.7,824.6c2.8-.6,7.6,4,11.9,11s10.3,11.9,10.1,16c0,0,.3,6.4-2.6,8.7s-8.2,7.1-11.6,4.6c-1.7-1.2-2-4.7-.1-8.5-1.9,2.8-4.5,2.1-5.7.4s-.1-5.5,1.6-10.2c-.7,1.3-1.3,2.9-2.3,3.4a2.8,2.8,0,0,1-3.2-.5c-2.1-1.5-1.9-5-.9-8.5a4.8,4.8,0,0,1-3-.5C447.3,838.1,452.5,825.6,457.7,824.6Z"/><path class="cls-10" d="M474.6,844.9c-2.3,3-4.6,6-7,8.9s-2.9,3.1-3.6,5.1-.9,3.8,0,5.4,3.3,2.4,5.3,1.8a11.8,11.8,0,0,0,4.5-2.8c.3-.3-.2-.9-.5-.5-2.1,1.9-7.1,4.8-8.8,1-.7-1.7-.2-3.6.4-5.2a3.6,3.6,0,0,1,1-1.5l3-3.7c2.1-2.6,4.2-5.4,6.3-8.1.3-.4-.3-.8-.6-.4Z"/><path class="cls-10" d="M468,836.6a50,50,0,0,0-6.5,8.8c-1.2,2.2-2.4,4.3-2.7,6.8s-.4,5.8,2.3,6.2a5.5,5.5,0,0,0,3.9-1c.5-.2.1-.8-.3-.6a5.7,5.7,0,0,1-3.6.9c-1.3-.3-1.5-1.8-1.6-2.9a10.8,10.8,0,0,1,.3-4,26.9,26.9,0,0,1,2.9-5.9,44.4,44.4,0,0,1,5.8-7.7c.4-.4-.2-.9-.5-.6Z"/><path class="cls-10" d="M461.9,828.9a35.6,35.6,0,0,0-7.4,13.1c-.7,2.3-1.5,5.7-.1,7.9s2.9,1.5,4.5,1.2.3-.9-.2-.8-3.6.2-4.1-2a10.2,10.2,0,0,1,.3-4.9,33.1,33.1,0,0,1,7.6-14c.3-.3-.2-.9-.6-.5Z"/><path class="cls-10" d="M455.2,839.8a2.8,2.8,0,0,1-4.2-.5c-1.1-1.7-.7-3.8-.3-5.7.1-.4-.6-.6-.7-.2-.5,2.2-.9,4.8.6,6.6a3.5,3.5,0,0,0,5.1.3c.3-.3-.2-.8-.5-.5Z"/><path class="cls-19" d="M92.1,1654.2h917c12.4,0,24.8.2,37.1,0h1.7a1.2,1.2,0,0,0,0-2.4h-917c-12.3,0-24.7-.2-37.1,0H92.1a1.2,1.2,0,1,0,0,2.4Z"/><path class="cls-18" d="M488.6,1220c-7.8-4.2-11-14.9-7.9-23s8.3-16.2,3-24.4c-.9-1.4-3.5-1-3.4.9s.9,5.6.7,8.4-1.7,6.8-3.3,10.1-3.2,8-2.9,12.6a21.7,21.7,0,0,0,12,18.5c2,.9,3.8-2,1.8-3.1Z"/><path class="cls-18" d="M627.9,1025.8c-5.9,1-4.9,8.7-2.7,12.5s5.1,7.2,6.2,11.8-.3,9.9-1.4,15.1a1.7,1.7,0,0,0,3,1.3c3.4-4.8,3.1-12.6,1.6-18a26.8,26.8,0,0,0-4.3-8.4c-2.8-3.8-6.8-9.5-1.9-13.5.4-.3-.1-.8-.5-.8Z"/><path class="cls-18" d="M657.2,1369.4c-1.7-5.8,3-9.6,7-12.8a68.7,68.7,0,0,0,10-9.4c5.3-6.5,8.3-14.1,7.8-22.4-.2-3.1-5.1-3-4.7,0,1.5,11.4-5.5,20.7-13.8,27.8-5.5,4.7-12.1,9.6-9.6,17.7.7,2.1,4,1.3,3.3-.9Z"/><path class="cls-18" d="M942.3,1124.7c-4.1,7.2-1.2,15.1,3.5,21.1,3.3,4.2,7.3,7.8,9.5,12.7s2,10.7,2,16.5c0,2.8,3.9,3.2,4.7.6,2.6-7.6-.3-17.1-4.8-23.5s-17-15.5-11.7-25.5c1.2-2.1-2-4-3.2-1.9Z"/><path class="cls-18" d="M953,973.3c-.3-5.1,6.7-8.7,9.7-12.2a39.1,39.1,0,0,0,6-10c3.2-7.5,5-17.5,2.2-25.5-.6-1.6-3.4-1.5-3.2.5.7,10.1.9,19.1-4.3,28.3-2.4,4.2-5.5,7.2-9,10.4s-4.5,4.9-4.3,8.5c.1,1.9,3,1.9,2.9,0Z"/><path class="cls-18" d="M144.3,1129.7c-2.3-9.4,8.2-12.1,14.9-13.9a35.5,35.5,0,0,0,12.5-6.1,39.9,39.9,0,0,0,14.3-22.6c.6-2.5-3.3-3.6-3.8-1.1-2.7,12.1-10.9,22.6-23,26.2-8.7,2.7-21,6.5-17.9,18.3a1.6,1.6,0,0,0,3-.8Z"/><path class="cls-18" d="M268.5,708.3c-6.7,13.3,2.6,25.9,8.4,37.5a43,43,0,0,1,4.5,22.6c-.7,8.2-4.1,14.2-7.8,21.4-1.4,2.8,2.3,6.1,4.6,3.5,8.6-9.4,10.1-26,7.2-37.9-3.5-14.7-21.9-29.7-14.1-45.5.9-1.9-1.9-3.5-2.8-1.6Z"/><path class="cls-18" d="M726.4,700.4c-8.7-6.6-15-15.3-10.6-26.6,3.4-8.6,9.2-16.5,6.2-26.2l-4.9,2.1c.5.9,1.1,1.7,1.7,2.6s5,.8,4.2-1.8c-.3-1-.6-1.9-1-2.9-1.2-3.2-6.2-1.9-5.2,1.4,3.7,12-8.8,21.9-7.9,34.1.7,9.3,8,16.1,15.5,20.7,2.3,1.4,4.1-1.9,2-3.4Z"/><path class="cls-20" d="M693.6,1159.7c-1.4,8,2.6,14.5,7.4,20.5,3.3,4.1,6.3,8.1,7.9,13.2s.7,9.3,2.1,13.6c.5,1.6,3.2,2.4,4,.5,2.9-6.3-.4-15.6-3.6-21.3-4.5-8.4-15.4-14.8-13.9-25.4.4-2.6-3.5-3.7-3.9-1.1Z"/><path class="cls-20" d="M523.2,1354.1c-3.4-19.1,16.7-28.7,29-38.5,10-8,18.7-21.5,13.2-34.4-1.1-2.6-4.8-.7-4.3,1.8,4,18.6-12.2,28.7-24.8,38.5-10.5,8-19.4,19.7-16.6,33.6.4,2.3,3.9,1.3,3.5-1Z"/><path class="cls-20" d="M422.3,601.6c-.7,12,8.3,19.6,13.7,29.2a25.4,25.4,0,0,1,3.3,9.2,12.3,12.3,0,0,1-.3,4.7c-.3,1.1-1.4,2.6-1.6,3.9-.4,3.4,2,5.7,5.3,4.2a2.2,2.2,0,0,0,1.2-2.1v-.6c.1-2.8-3.9-3.2-4.7-.7l-.2.6,1.8-1.8-.7.2,2.5.6-.5-.4.7,2.6c.8-4.1,2.5-7.2,1.9-11.6a30,30,0,0,0-4.7-12.1c-5.2-8.3-14.4-15.1-14.3-25.9,0-2.2-3.3-2.1-3.4,0Z"/><path class="cls-20" d="M905.5,718.8a24.3,24.3,0,0,1,6-16.4c3.6-3.9,8.8-5.5,12.8-8.8,5.7-4.8,10.7-14.9,8-22.4-.7-1.9-3.9-2.4-4.4,0-.9,5.2-.6,9.9-3.5,14.6s-8.4,6.7-12.8,10c-7.2,5.4-10.7,14.2-10.5,23,.1,2.9,4.4,2.9,4.4,0Z"/><path class="cls-20" d="M1042.4,955.2c-3.3,2.8-4.1,7.2-3.5,11.4,1,7.2,4.6,12.9,1.9,20.3-2.1,5.7-6.8,8.2-11.1,11.9s-6,6.4-4.4,10.5c.6,1.6,3.1,2.4,3.9.6a23.8,23.8,0,0,1,7.2-9.7c3.6-2.9,6.6-5.8,8.5-10.2a23.7,23.7,0,0,0,1.3-12.9c-1.1-5.9-7.1-14.3-1.3-19.4,1.7-1.5-.8-4-2.5-2.5Z"/><path class="cls-20" d="M96.8,986.7c2.6,9.9,13.6,13.8,16.4,23.7,1.8,6.3.3,12.2-2.9,17.7s-5,8.6-3.2,13.7c.8,2.4,5,2.2,4.8-.7-.6-6.1,4.2-10.8,6-16.4a26.4,26.4,0,0,0,.3-15,25.1,25.1,0,0,0-7.1-11.6c-4.1-3.8-9-6.8-10.8-12.4-.6-2.2-4.1-1.3-3.5,1Z"/><path class="cls-20" d="M91.2,1197.7c.2-7.8,8.7-11.3,13.2-16.5s7.2-10.8,7.1-16.8a1.3,1.3,0,0,0-2.6-.4c-1.1,4.5-1.8,8.7-4.3,12.6a40.1,40.1,0,0,1-7.6,7.8c-4.3,3.6-8.3,7.3-8.4,13.3a1.3,1.3,0,0,0,2.6,0Z"/><path class="cls-20" d="M380.7,775c1.2-5.2,6.2-7.9,9.4-11.8a37.9,37.9,0,0,0,5.5-9.8c2.4-6.9,3.3-17.4-.7-23.9a2.2,2.2,0,0,0-3.9,1.7c.9,4.1,2.5,7.5,2.5,11.9a31,31,0,0,1-2.6,13.1c-3,7-11,10.6-12.7,18.1-.4,1.6,2.1,2.3,2.5.7Z"/><path class="cls-8" d="M535.9,1050.2c-4.4,9.4,2,17.5,8.6,23.7,4.3,4.1,9.5,9,9,15.5-.4,3.8-3.8,8.2.7,10.7,1.5.9,3.9-.2,3.7-2.1-.4-3.5,1.2-6.8.8-10.4a21,21,0,0,0-4.8-10.6c-5.7-7-20-13.9-15.2-25.2.8-1.9-1.9-3.5-2.8-1.6Z"/><path class="cls-8" d="M722.2,794.8c-3.1-11.5,9.5-16.3,17.4-20.6,6.1-3.4,11.3-8.1,12.8-15.2.7-3.3-4.5-4.6-5-1.3-1.8,11-13.9,13.2-21.5,19.2-5.7,4.4-9.3,11.6-7,18.8.7,2.1,3.9,1.2,3.3-.9Z"/><path class="cls-8" d="M154.7,658.2c-.8,5.9,2,10.3,6.6,13.9,2.8,2.2,6.1,3.9,7.7,7.3s.9,7.4,2.1,11.1,4.1,2.4,4.7,0a20.4,20.4,0,0,0-3.7-16.4c-4.1-5.1-13.8-7.5-13-15.3.2-2.5-4-3.1-4.4-.6Z"/><path class="cls-8" d="M638.8,1203c0,6.1-4.5,11.1-10.1,11.1s-10.1-5-10.1-11.1,4.5-11.1,10.1-11.1S638.8,1196.9,638.8,1203Z"/><path class="cls-8" d="M477.1,1105.1c0,4-2.9,7.2-6.5,7.2s-6.4-3.2-6.4-7.2,2.9-7.1,6.4-7.1S477.1,1101.2,477.1,1105.1Z"/><ellipse class="cls-8" cx="900.6" cy="989.8" rx="6.6" ry="7.3"/><ellipse class="cls-8" cx="85.8" cy="1083.5" rx="4.5" ry="4.9"/><path class="cls-8" d="M241,1195.5c0,6.1-4.4,10.9-9.9,10.9s-9.9-4.8-9.9-10.9,4.4-10.9,9.9-10.9S241,1189.5,241,1195.5Z"/><ellipse class="cls-8" cx="219.4" cy="809.9" rx="13.3" ry="14.6"/><path class="cls-8" d="M658.7,674.3c0,7.8-5.8,14.2-12.9,14.2s-12.9-6.4-12.9-14.2,5.7-14.1,12.9-14.1S658.7,666.5,658.7,674.3Z"/><path class="cls-16" d="M455.1,1288.5c0,3.7-2.7,6.7-6,6.7s-6.1-3-6.1-6.7,2.7-6.7,6.1-6.7S455.1,1284.8,455.1,1288.5Z"/><ellipse class="cls-16" cx="599.7" cy="1378.4" rx="9.4" ry="10.3"/><path class="cls-16" d="M718.2,1260.4c0,4.5-3.3,8.2-7.4,8.2s-7.5-3.7-7.5-8.2,3.4-8.2,7.5-8.2S718.2,1255.9,718.2,1260.4Z"/><path class="cls-16" d="M991.4,1092.7c0,7.6-5.6,13.7-12.4,13.7s-12.5-6.1-12.5-13.7,5.6-13.6,12.5-13.6S991.4,1085.2,991.4,1092.7Z"/><ellipse class="cls-16" cx="1017.2" cy="889.4" rx="4.8" ry="5.2"/><ellipse class="cls-16" cx="830.1" cy="782.1" rx="8.9" ry="9.8"/><path class="cls-16" d="M731.5,860.7c0,5.2-3.8,9.5-8.6,9.5s-8.6-4.3-8.6-9.5,3.8-9.5,8.6-9.5S731.5,855.4,731.5,860.7Z"/><path class="cls-16" d="M325.9,836.3c0,4.2-3.2,7.7-7,7.7s-7-3.5-7-7.7,3.1-7.7,7-7.7S325.9,832,325.9,836.3Z"/><path class="cls-16" d="M343.9,668.3c0,5.3-3.9,9.5-8.7,9.5s-8.6-4.2-8.6-9.5,3.9-9.5,8.6-9.5S343.9,663,343.9,668.3Z"/><path class="cls-16" d="M156.2,754.5c0,3.8-2.8,6.9-6.2,6.9s-6.3-3.1-6.3-6.9,2.8-6.9,6.3-6.9S156.2,750.7,156.2,754.5Z"/><path class="cls-18" d="M250.1,899.9a5.5,5.5,0,0,1-5.2,5.7,5.4,5.4,0,0,1-5.2-5.7,5.5,5.5,0,0,1,5.2-5.7A5.5,5.5,0,0,1,250.1,899.9Z"/></g></svg>