<svg xmlns="http://www.w3.org/2000/svg" viewBox="0 0 1893 2436"><defs><style>.cls-1{fill:#ffffe8;}.cls-2{fill:#d87561;}.cls-3{fill:#2b2726;}.cls-4{fill:#e5d3be;}.cls-5{fill:#84372d;}.cls-6{fill:#f96353;}.cls-7{fill:#fff;}.cls-8{fill:#875a54;}.cls-9{fill:#ccb59e;}.cls-10{fill:#514b4a;}.cls-11{fill:#c3cde2;}.cls-12{fill:#a54544;}.cls-13{fill:#7e88ab;}.cls-14{fill:#fbe4d0;}.cls-15{fill:#821e16;}.cls-16{fill:#669;}.cls-17{fill:#bcada2;}</style></defs><g id="Layer_2" data-name="Layer 2"><rect class="cls-1" width="1125" height="2436"/><text/></g><g id="Layer_3" data-name="Layer 3"><path class="cls-2" d="M606.1,1161.9S632,1058.4,659,1002.2l115.9,1.1,60.8,88.9,106.8-56.3s19.2,7.9,14.7,29.3c0,0-47.3,65.2-127.2,95.6,0,0-75.4-48.4-99-83.2,0,0-59.6,84.3-67.5,90,0,0,45,91.1,55.1,148.5,0,0-7.8,13.5-29.2,6.7C689.4,1322.8,629.7,1231.7,606.1,1161.9Z"/><path class="cls-2" d="M525,723.1s17,68.4,122.7,96.1l-.5,55.3S529.3,861.8,503,730Z"/><path class="cls-3" d="M653.2,1393.9s17.3-50.7,34.2-71.6c0,0,14.3,6.3,30.8-7.3,0,0,10.8,7.9,13,19.7Z"/><path class="cls-3" d="M623,1076.4s66.6,22.9,82.2,39.5l23.9-31.2,34.3,30.2,57.3-55.2-41.6-61.3-118.6-1.1S629.3,1060.8,623,1076.4Z"/><path class="cls-3" d="M732.6,805.9c18-.3,68.9,15.6,70.9,17.1,0,0-8,82.6-11.9,118s-9.8,71.5-9.8,71.5-65.3,14.6-131.8-8.1c0,0-7.2-108.8-5.3-185.5C644.7,818.9,669,806.9,732.6,805.9Z"/><path class="cls-2" d="M919.5,727.8s-17,68.4-122.7,96.2l.5,55.4s117.9-12.8,144.2-144.6Z"/><path class="cls-2" d="M738.9,789.5l-.9,29.2a19.9,19.9,0,0,1-17.8,10.8c-13,0-18.1-9.3-18.1-9.3l2.1-35.3a25,25,0,0,1,17.5-5.7C732.5,779.8,738.9,784.6,738.9,789.5Z"/><path class="cls-2" d="M503.3,730.3s-7.2-9.2-15.1-35.7-2.8-28.5-.3-26,8.1,19.6,8.1,19.6-6.7-25.4-1.1-30,6.3,18.2,9.6,25.6c0,0-4.2-24.2-.4-28.8s5.1,18.9,9,26.9c0,0-3.9-20.5.5-28s5.8,9.4,6.3,16.5,3.4,20.8,6.7,26.5c0,0,3.9-7.6,4.5-13.5s7.6-9.3,7.8-2.9,2.5,24-14.4,44.1Z"/><path class="cls-3" d="M672.2,726.3s-7.7-14.9-6-36.3,18.5-26.3,22.3-13.4S672.2,726.3,672.2,726.3Z"/><path class="cls-3" d="M759.5,740.1s11.9-11.8,16.8-32.7-9.4-30.7-17-19.6S759.5,740.1,759.5,740.1Z"/><path class="cls-2" d="M675,721.4s-2.9-13.5-10.2-15.3-16.2,25.7-.2,36.4S675,721.4,675,721.4Z"/><path class="cls-2" d="M760.7,735.8s7-11.9,14.5-11.3,7.1,29.5-11.4,34.5S760.7,735.8,760.7,735.8Z"/><path class="cls-4" d="M765.9,692s18.2-14,11.1-36.6-42.1-29.8-64.7-23.4-32.5-15.4-32.5-21.3-9.7-5.6-13.3,1.3,1.6,19.6-.9,19.5-4.4-15.4-10.4-15.1-6.1,28.7,8.6,38.5c0,0-17.1-.8-18.3,8.7s26.4-3,38.3,18.9Z"/><path class="cls-2" d="M726,666.4c18.3,2.7,41.7,10.1,40.4,29.9-1.1,16.5-4.1,107.9-60.8,101.4s-27-110.8-24.2-118.9C687.1,662.6,707.4,663.8,726,666.4Z"/><path class="cls-5" d="M708.3,740.3c-1.9-.6-3.9-1.2-5.7-1.9l-2.5-.8c-1.7-.5-2.2.7-1.9,2.2.8,3.5,3.7,4.7,6.3,6.5.8.6.1,1.5-.6,1.5-4.1-.1-8.5-5.7-7.8-9.7a3,3,0,0,1,3.4-2.7,24.3,24.3,0,0,1,3.8,1.3l5.6,2.2c.8.4.2,1.6-.6,1.4Z"/><path class="cls-5" d="M766.9,749.7a50.2,50.2,0,0,0,2.6-4.6c.6-1.7,1.9-5.5.1-6.7s-.3-.9.1-1c2.7-.7,2.6,2.8,2.4,4.5s-1.9,6.6-4.6,8.3c-.3.2-.9-.1-.6-.5Z"/><path class="cls-5" d="M665,734.6c-1.8-2.7-2.1-5.9-2.1-9.1s.2-6,2.5-7.8,2.2.6,1.4,1.4c-3.5,3.6-2.5,10.7-1,15,.2.5-.5.9-.8.5Z"/><path class="cls-3" d="M724.5,729.4c1.3,2.1,4.6,2.6,7.1,1.8s4.5-3.1,4.5-5.4-.1-3.9-1.9-4.8l-.3-.5c-1.2-1.3-3.9-3-6.1-2.4a.2.2,0,0,0,0,.4c1,.5,2,.9,2.8,1.4a6.6,6.6,0,0,0-5.3,2.3A6.2,6.2,0,0,0,724.5,729.4Zm6.8-7.1a3,3,0,0,1,.8.8,1.3,1.3,0,0,1,.3.7.2.2,0,0,1-.2.2,2.3,2.3,0,0,1-3.8-.5c-.5-.8.6-1.6,1.8-1.5Z"/><path class="cls-5" d="M728.4,733.9a25,25,0,0,1,2.9-.5,13.6,13.6,0,0,1,2.9-.6c.4,0,.6.4.4.8s-4.4,2.2-6.3,1.9A.8.8,0,0,1,728.4,733.9Z"/><path class="cls-3" d="M703.6,718.8a6.7,6.7,0,0,0-4.4-3.9l3.1-.4c.3,0,.3-.3.1-.4-1.9-1.2-5-.5-6.4.4l-.5.3c-2,.4-2.9,2.8-3.3,4s-.1,4.7,2.6,6.6,5.4,2,7.3.5S704.5,721.2,703.6,718.8Zm-4.6-1.7c1.1.3,1.9,1.3,1.2,2a2.4,2.4,0,0,1-3.8-.7c0-.1-.1-.2-.1-.3l.5-.6,1-.5Z"/><path class="cls-5" d="M697.1,728.9l-2.7-1.3a12.8,12.8,0,0,0-2.5-1.5c-.4-.1-.8.2-.6.6s3.4,3.5,5.3,3.8A.9.9,0,0,0,697.1,728.9Z"/><path class="cls-3" d="M687.1,703.8a63.3,63.3,0,0,1,9.4-3.7c3.2-1.1,7.1-.7,10.2-2.3s3.7-7.4-.9-8.3-8.7,1.9-12.2,4.2a24.1,24.1,0,0,0-7.9,8.6c-.4.8.6,1.9,1.4,1.5Z"/><path class="cls-3" d="M748.9,713.5a98.4,98.4,0,0,0-7.8-6.4c-2.7-1.9-6.6-2.8-9-5.3s-1.2-8.2,3.4-7.6,7.7,4.5,10.4,7.8a24.4,24.4,0,0,1,4.8,10.6c.1.9-1.2,1.6-1.8.9Z"/><path class="cls-6" d="M742.8,750.1c-3.3.4-6.6,1-10,1.7l2.4-5.3c-1.8-.5-2.2-.7-1.2-.7h1.2l1.9-.4a10.7,10.7,0,0,0,3.5-1.4,18.3,18.3,0,0,1-1.3,1.6l.2-.3v3.1c0-.1-.1-.3-.1-.4l1.2,1.7c.4.3,0,.1-.2.2s-1.5.1-2,.2l-1.7.2c-.7.1-1.5.7-.9-.1l.9-2v.4l-.3-2.1c.1.1.1.3.2.4l-1.3-1.7c-1-.8.4-.1,1,0a16.1,16.1,0,0,0,2.2,0,10.3,10.3,0,0,0,3.8-1.4c0,2.2-.1,4.5-.2,6.8,1.1.3,1.2.4.2.4h-1.7l-3,.2c-2.3.1-4.6.4-6.5-1.3a3.7,3.7,0,0,1-.5-4.9c1.8-2.7,5.7-2.6,8.6-2.8s5.9-.3,8.4,1.6,2.2,5.5-.2,6.9c-4.6,2.6-11,4.2-16.1,1.7a5.1,5.1,0,0,1-1.8-7.8c1.9-2.4,5.7-2.6,8.5-2.9s5.7-.2,7.7,1.7,1.7,6.1-1.3,7.5-12.4,3.8-14.9-1.2a3.3,3.3,0,0,1,2.8-4.5c3.6-.2,7.2-.2,10.8-.1s2.7,4.6-.1,5Z"/><path class="cls-6" d="M688.9,741.8c-1.5-.2-4.1-1.2-5.4-.6l1.3-.9a.3.3,0,0,1-.1.2,21.7,21.7,0,0,1,.7-2.4v.3l-1.2-2.2a5.6,5.6,0,0,0,1.7.9l.9.2c.5.2.7-.4-.3.4s-.9,1-1.3,1.6.1-.3.1-.4L685,741a.4.4,0,0,0-.1-.3c.3.6.5,1.3.8,1.9s1,.8.4.5l-.9-.4a6.2,6.2,0,0,0-1.9-.7,7,7,0,0,0-2.7-.6L684,739l-.2.3c0-1.1.1-2.2.1-3.3a.4.4,0,0,1,.1.3l-1.2-1.7a8.7,8.7,0,0,0,5.3,2.2l-2.3.3.4-.2-1.8,1.3c1.2-1.1,2.4-2.1,4.2-1.7a4.4,4.4,0,0,1,3.5,4.9v.2a4.2,4.2,0,0,1-2.7,3.4c-4.6,1.5-16.9-3.7-12.8-10,2.1-3.2,6.6-1.9,9.6-.9s6.5,2.3,6.9,5.7-3,5.9-6.4,5.4-5.7-1.8-7.2-4a3.9,3.9,0,0,1,3.3-6.2,12,12,0,0,1,7.8,3.1c1.3,1.4.5,4.1-1.7,3.7Z"/><path class="cls-7" d="M730.6,721.7c1.5.3,3.4,2.5,1.3,3.6s-4.2-.6-3.9-1.7A2.2,2.2,0,0,1,730.6,721.7Z"/><path class="cls-7" d="M698.6,716.2c1.5.3,3.4,2.5,1.3,3.6s-4.2-.6-3.9-1.7A2.3,2.3,0,0,1,698.6,716.2Z"/><path class="cls-4" d="M759.9,672.3s-26.6,16-54.9,11.9-32.1-12.1-39.2-14.5-5.7-6.8-5.7-6.8,67.7-5.1,78.5-3.4S759.9,672.3,759.9,672.3Z"/><path class="cls-8" d="M671.7,755c6.9-3.7,17.2-6.8,32.1-5.7,27.2,1.9,40.8,17.2,45.5,23.9-8.9,15.8-22.6,26.9-43.7,24.5C682.8,795.1,673.9,776.7,671.7,755Z"/><path class="cls-2" d="M725.5,769.5s-.8,16.1-8.5,17.2-6.2-8.1-6.6-8.2l-6.7-.4s-2.8,9.8-8.6,6.6c-7.7-4.3-2.3-26.1-2.3-26.1s7.1,2.8,8.7,3l19,2.2Z"/><path class="cls-5" d="M712.3,778.9c-3,.9-7.2.8-9.9-.8a.8.8,0,0,1,.5-1.6c1.6.1,3.1.5,4.6.7l4.7.4c.7,0,.8,1.1.1,1.3Z"/><path class="cls-5" d="M731.6,766.3a20.5,20.5,0,0,0-.7-3.4c-.3-1-.9-1.9-1.2-3s.4-1,1-.7,2.7,5,1.9,7.3a.5.5,0,0,1-1-.2Z"/><path class="cls-7" d="M727,766.6s-5.7,8.5-20.4,6.7C695,772,695,761.8,695.4,759.8c0,0,5,1.5,6.8,1.9s16.7,2.5,18.3,2.1,9.1-1.1,9.1-1.1S728.2,765.9,727,766.6Z"/><path class="cls-5" d="M731.7,762.7c-13.4,4.6-30.3,1.6-42.4-5.2a.7.7,0,0,1,.5-1.2c6.7,2.6,13,5,20.2,6s14.2,0,21.4-.7a.6.6,0,0,1,.3,1.1Z"/><path class="cls-5" d="M729.6,762.8c.2,0,.2-.2,0-.2s-.2.2,0,.2Z"/><path class="cls-5" d="M730.4,762.9c-2.3,5.7-7.7,9.5-13.6,11s-15.2,1-20.4-3.3a.6.6,0,0,1,.5-1c3,.8,5.8,2.2,8.9,2.7a23.6,23.6,0,0,0,9.9-.2c5.8-1.3,10.5-4.9,14.1-9.5a.3.3,0,0,1,.6.3Z"/><path class="cls-7" d="M769.9,738.4c2.6.6,8.8,1,10.4-1.8s3.1-.4,2.3,1-3.1,2.8-5.3,3.2-5.9.9-8-1.2c-.4-.4-.1-1.4.6-1.2Z"/><path class="cls-7" d="M781.9,737.2c-.3.2.1.2.2.2s0-.1,0-.1h.1c-.2,0-.2-.1-.3.1s-.1.1,0,.1.3.1.3,0h0c-.1.1-.2-.3,0-.1h-.1c-.1.1-.4.1-.2.3a.2.2,0,0,0,.3,0h0c0,.1-.1-.1,0-.1s0,0-.2,0,0,.3,0-.1-.1.1,0,.2.2.2.1.2.3-.1.3-.2.1-.2.1-.1h0c-.1.1.1.2.4.3s.3-.2,0,.1l-.3.3c-.5-.7-.6-.9-.2-.8h-.7c1.5-.7,2.4,1.6.9,2.3a1.8,1.8,0,0,1-2.3-2.3,3,3,0,0,1,3-2.1,2.2,2.2,0,0,1,1.6,2.8,2.8,2.8,0,0,1-2.2,2.2,2.6,2.6,0,0,1-2.1-4.5,2.4,2.4,0,0,1,3,.2,2.3,2.3,0,0,1,.6,2.8,2.5,2.5,0,0,1-2.7,1.3,2.2,2.2,0,0,1-1.8-2.5c.2-2.4,3.7-3,4.4-.6a2.1,2.1,0,1,1-2.8-1.1,1.8,1.8,0,0,1,2.5,1.1,1.9,1.9,0,0,1-1.4,2.7,2.2,2.2,0,0,1-2.3-1.9,1.7,1.7,0,0,1,2.5-1.6,1.3,1.3,0,0,1-.1,2.4.6.6,0,0,1-.6-1.1Z"/><path class="cls-3" d="M760.2,752a3.5,3.5,0,0,0,2.9,3.9A3.4,3.4,0,0,0,767,753a3.5,3.5,0,0,0-2.8-3.9A3.5,3.5,0,0,0,760.2,752Z"/><path class="cls-9" d="M771.3,658.1c-2.1-3.7-3.6-7-6.9-10s-7.4-5.1-10.8-8c-.7-.5,0-1.5.7-1.2a35.9,35.9,0,0,1,12.3,8.4c2.6,2.7,5.5,6.6,5.5,10.5,0,.4-.6.7-.8.3Z"/><path class="cls-9" d="M763.1,653.8c-2.4-2.8-4.4-5-7.9-6.5s-7.2-2.1-10.3-4.1a.7.7,0,0,1,.5-1.2c5.7,1.1,17.5,4.3,18.4,11.5.1.4-.4.5-.7.3Z"/><path class="cls-9" d="M708.1,679c-5.6,1.2-12,.5-17.5-1s-11.3-3.8-15.1-7.6c-.5-.5-.1-1.4.6-1,2.3,1.2,4.4,2.8,6.7,3.9a47.1,47.1,0,0,0,8.1,3.2c5.7,1.6,11.2,1.7,17.1,1.7a.4.4,0,0,1,.1.8Z"/><path class="cls-9" d="M697.6,674.5c-3,.3-5.4-.7-8-2.1l-8.4-4.1c-6.3-2.7-12.8-4.1-19.2-6-.9-.3-.8-1.6.2-1.5,5.9.4,12,2.5,17.5,4.7a59.8,59.8,0,0,1,8.1,3.8c3.1,1.6,6.2,3.8,9.8,4.1a.6.6,0,0,1,0,1.1Z"/><path class="cls-10" d="M676.3,688.2a7.4,7.4,0,0,1-2.4-1.1c-.6-.4-1.5-.9-1.7-1.6s.1-.7.5-.7,1.4.8,2.1,1.2a14.3,14.3,0,0,1,2,1.4c.3.4-.1.8-.5.8Z"/><path class="cls-10" d="M674.6,693.2c-1.5-.1-3.5-.8-4.3-2.3s.4-1,.9-.7,1,.8,1.6,1.1a5,5,0,0,0,2,.8.6.6,0,1,1-.2,1.1Z"/><path class="cls-10" d="M672.4,699.1c-.8-.3-2.3-1-2.4-2a.6.6,0,0,1,.6-.6,1.9,1.9,0,0,1,1.2.7,6.7,6.7,0,0,0,1.2.6.7.7,0,0,1-.6,1.3Z"/><path class="cls-10" d="M773.3,700a3.7,3.7,0,0,1-2.3.5,5.1,5.1,0,0,1-2.5-.4c-.4-.2-.4-1,.2-1s1.5.3,2.3.3a8.1,8.1,0,0,1,2.2,0c.3.1.2.5.1.6Z"/><path class="cls-10" d="M773.1,704.8c-1.3.3-3.1.5-4.3-.2a.7.7,0,0,1,.2-1.2,12.5,12.5,0,0,1,1.9.3h2a.5.5,0,0,1,.2,1Z"/><path class="cls-10" d="M771.3,710c-1,.4-2.6.6-3.4-.3a.6.6,0,0,1,.5-1.1,5.2,5.2,0,0,0,2.5.3c.7-.3,1.1.8.4,1.1Z"/><path class="cls-2" d="M921.7,730.2s-12.8-13-11.5-26.3,6.1-9.9,13.9-9.1c0,0,9.1-22,16.9-11.8,0,0,6.1-4,9.4,3.9,0,0,5.8-6.7,10,2,0,0,6.2-3.2,7.8,6s-11.3,36.2-24,39.3S921.7,730.2,921.7,730.2Z"/><path class="cls-3" d="M1036.2,1072.6s-53.6.3-78.9-8.9c0,0,1.3-15.5-16.9-26.6,0,0,3.9-12.9,14.3-18.8Z"/><path class="cls-3" d="M524.9,797.7a51.5,51.5,0,0,1,28.3-36s37.1,43.7,94.5,57.5l.9,57.7S568.7,874.1,524.9,797.7Z"/><path class="cls-3" d="M796.3,884l-5-64.4s42.4,2.2,93.3-45.9l36.7,25.5S887.4,873.4,796.3,884Z"/><path class="cls-3" d="M519.2,800.6s2.9-32.5,35.4-43.1l12,12.7s-31.8,29.7-35.3,43.8Z"/><path class="cls-3" d="M878.2,774.4l44.5,30.4L933.3,790s-32.5-21.9-45.9-26.2Z"/><path class="cls-2" d="M704.8,823.1c1.6,0,22.9,3.5,22.9,3.5l-9.3,28.6-7.7.8-6.6-8.9Z"/><path class="cls-3" d="M713.8,804.9l-5.1,23.2,5.1,26.4,8.5-24.4V807.6a28.6,28.6,0,0,0,17.8-6.6l5.4,14.3-5.8,39.9-18.2,17.1-22.1-2-15.1-16.2s-2.7-20.9-1.9-23.3,13.2-17,13.2-17l3.4-15.1A59.6,59.6,0,0,0,713.8,804.9Z"/><path class="cls-10" d="M539.9,800.6a23.8,23.8,0,0,0,2.3-4.5,62.2,62.2,0,0,1,3.2-5.6c2.5-3.7,5.8-6.3,8.7-9.6a.8.8,0,0,0-1-1.3c-3.6,2-6.5,5.9-8.8,9.3s-5.1,7.6-4.9,11.5a.3.3,0,0,0,.5.2Z"/><path class="cls-10" d="M648.1,850.5a49.8,49.8,0,0,0-1.4,11.6,41.9,41.9,0,0,0,.6,11.7.6.6,0,0,0,1.1-.2c.1-3.8-.4-7.7-.3-11.5s.6-7.7.8-11.5a.4.4,0,0,0-.8-.1Z"/><path class="cls-10" d="M694.6,813.3a.4.4,0,0,0,0-.8.4.4,0,1,0,0,.8Z"/><path class="cls-10" d="M693.7,815.3c1.2,4,4.9,7.9,9.3,8.1.8.1.9-1.2.2-1.4-3.9-1.2-7-3-8.4-7a.6.6,0,0,0-1.1.3Z"/><path class="cls-10" d="M730.8,825.7c5-1.2,11.4-4.6,13.3-9.8a.7.7,0,0,0-1.2-.7c-1.8,1.8-3.1,3.9-5.2,5.5a21.9,21.9,0,0,1-7.3,3.7.7.7,0,0,0,.4,1.3Z"/><path class="cls-10" d="M707.5,1001.2c-1-8.8-2.2-17.4-2.7-26.2s-.6-17.3-.4-25.9c.3-17.5,1.8-35,3.8-52.3,1.1-10,2.4-20,3.7-30,.2-.9-1.3-.9-1.4,0-4.7,34.9-9.6,70.3-7.6,105.6.6,9.6,1.4,19.5,3.5,28.9a.6.6,0,0,0,1.1-.1Z"/><path class="cls-10" d="M789.1,846c-1.3,6.8-2.6,14.4-1.7,21.4.1.5.8.5.8,0,.2-3.4.1-6.8.3-10.2a80.7,80.7,0,0,1,1.4-11c.1-.6-.7-.8-.8-.2Z"/><path class="cls-10" d="M793.6,856.6a23.3,23.3,0,0,0,.9,13.3c.2.6,1.2.3,1-.3a24.9,24.9,0,0,1-.9-12.7c.1-.6-.9-.9-1-.3Z"/><path class="cls-10" d="M887.5,781c4.4,2.5,8.9,4.8,13.5,7s7.5,3.9,10.5,7.4c.5.6,1.3-.1,1-.8-1.8-3.8-6.2-5.9-9.8-7.6s-9.9-4.6-14.9-6.6c-.4-.1-.6.5-.3.6Z"/><path class="cls-10" d="M702.3,1017.7a42.6,42.6,0,0,0,5.1-11.8l-1.3.2a45,45,0,0,0,5.9,9.6c.7.7,1.7-.3,1.1-1.1a46.1,46.1,0,0,1-5.8-9.2c-.2-.6-1.1-.4-1.3.1a48.8,48.8,0,0,1-4.5,11.7c-.2.5.5.9.8.5Z"/><path class="cls-10" d="M713.5,1016a80.7,80.7,0,0,0,17.7,1.1c5.8-.2,11.9-.6,17.5-2.2.6-.2.5-1.2-.1-1.1-5.8.5-11.6,1.4-17.4,1.6s-11.7-.3-17.5-.6c-.7-.1-.9,1.1-.2,1.2Z"/><path class="cls-10" d="M700.5,1043.8c-.6,6.4,3.5,14,7.4,18.7s10.5,10,17.1,10.8c.7.1,1.1-1.1.4-1.4-2.9-1.2-5.9-2.1-8.6-3.8a33.1,33.1,0,0,1-7.6-6.4,35.9,35.9,0,0,1-5.3-8c-1.5-3.3-1.9-6.5-2.8-10-.1-.3-.5-.2-.6.1Z"/><path class="cls-10" d="M700.5,1091.8c4.3-8.5,9.7-16.1,15.1-23.9.5-.8-.8-1.8-1.4-1.1-6,7.4-10.4,16-14.4,24.6a.4.4,0,0,0,.7.4Z"/><path class="cls-10" d="M743.2,1028.3a28.5,28.5,0,0,0,12.3,7.8,28.9,28.9,0,0,0,7.7,1.3,24.4,24.4,0,0,0,3.8-.1c2.2-.1,3,.5,4.7,1.8a144.3,144.3,0,0,1,25.9,25.9c.6.8,1.7-.3,1.1-1.1a148.3,148.3,0,0,0-25.1-25.6c-1.6-1.2-3.1-2.9-5.2-2.9s-5.8.4-8.8-.1a30.6,30.6,0,0,1-15.7-7.7.5.5,0,1,0-.7.7Z"/><path class="cls-10" d="M764.7,1099.7a154.4,154.4,0,0,1,47.7-42.2c1-.5.1-2-.8-1.5a143.8,143.8,0,0,0-48,43.1c-.4.6.6,1.2,1.1.6Z"/><path class="cls-10" d="M646.1,1068.2c10.9,5.3,22.6,9.1,33.5,14.5a123.7,123.7,0,0,1,28.2,19.3.7.7,0,0,0,1-1.1,125.9,125.9,0,0,0-28.1-19.2c-5.1-2.5-10.5-4.6-15.9-6.7s-12.2-5.2-18.5-7.4c-.3-.1-.5.5-.2.6Z"/><path class="cls-10" d="M948,1033.2c1.5,3.4,6.8,4.6,10.2,4.9s8.8-.7,11.8-3.5c.4-.5-.1-1.4-.7-1.2-3.2,1.3-6,2.7-9.5,2.8s-9-.6-10.9-3.5a.5.5,0,1,0-.9.5Z"/><path class="cls-10" d="M966.1,1068.7l3.3-6.7a24.9,24.9,0,0,0,2.6-6.1.7.7,0,0,0-1.3-.6,36.4,36.4,0,0,0-3,6.3l-2.7,6.5c-.3.7.8,1.4,1.1.6Z"/><path class="cls-10" d="M974.2,1071.5l.3.3a.6.6,0,0,0,.6,0c1.7-1,2.2-3.7,2.9-5.5s2.7-5.5,3-8.4c.1-.7-.8-.7-1.2-.3s-4.7,13.2-5.3,13.1a.4.4,0,0,0-.3.8Z"/><path class="cls-10" d="M986.3,1074a45.5,45.5,0,0,0,2.7-7.3c.9-2.4,2.1-4.9,2.2-7.5,0-.7-.9-.8-1.3-.3-1.4,2.1-1.8,5-2.5,7.4a37.7,37.7,0,0,0-2,7.5c-.1.5.7.6.9.2Z"/><path class="cls-10" d="M717.4,1321.7c-2.8,3.7-5.3,9.6-3.9,14.3.2.6,1.3.7,1.4,0,.3-2.3.1-4.5.6-6.7a24.8,24.8,0,0,1,2.7-7c.2-.5-.4-1-.8-.6Z"/><path class="cls-10" d="M660.1,1361.9c3.6,2,7.4,4.7,11.3,5.9.6.2,1.2-.7.7-1.1-3.3-2.6-7.6-4.2-11.3-6.1-.8-.4-1.6.8-.7,1.3Z"/><path class="cls-10" d="M665.4,1355.1c2.9,2.3,7.5,5.1,11.4,4.5.8-.1.5-1,0-1.3s-3.6-.7-5.3-1.4a26.9,26.9,0,0,1-5.3-2.8c-.6-.5-1.4.5-.8,1Z"/><path class="cls-10" d="M670,1345.1c3.3,2.6,8.1,5.5,12.4,5.5a.8.8,0,0,0,.2-1.6c-1.9-.7-4-.9-5.9-1.7a25.6,25.6,0,0,1-5.8-3.3c-.7-.5-1.5.6-.9,1.1Z"/><path class="cls-10" d="M677,1334.2l5.4,3.7a31.5,31.5,0,0,0,5,3c.7.2,1.1-.7.7-1.2a23.4,23.4,0,0,0-4.9-3.3c-1.8-1.2-3.6-2.4-5.5-3.5s-1.5.8-.7,1.3Z"/><path class="cls-5" d="M512.1,717a24.1,24.1,0,0,1,2.4-8.6c1.4-2.6,3.7-4.2,5.3-6.6a.8.8,0,0,0-.9-1.1c-5.7,1.9-8.8,10.9-7.8,16.3a.5.5,0,0,0,1,0Z"/><path class="cls-5" d="M491.5,692.3c4.3-2.3,8.3-4.9,12.9-6.6a63.6,63.6,0,0,1,6.2-1.9c2.4-.5,4.9-.6,7.2-1.4a.7.7,0,0,0-.2-1.4c-4.6-.5-10.2,1.7-14.5,3.5s-8.8,4-12.2,7.1c-.3.4.2,1,.6.7Z"/><path class="cls-5" d="M930.3,699.4c-1.2,2.6,0,6.1,2.1,7.9a7.7,7.7,0,0,0,9,.7c.7-.5.3-1.9-.7-1.5s-5.1,1.2-7.3-.6-2.3-3.8-2.4-6.3c0-.3-.5-.6-.7-.2Z"/><path class="cls-5" d="M940.1,707.1c.1,5.8,8.5,6.7,11.5,2.6.4-.5-.2-1.1-.8-1s-3.4,1.8-5.6,1.6a3.9,3.9,0,0,1-3.8-3.3c-.2-.8-1.4-.6-1.3.1Z"/><path class="cls-5" d="M950.1,710.3c1.6,3.6,6.5,5.2,9.7,2.6.8-.6-.2-1.6-1-1.3a6.1,6.1,0,0,1-7.7-1.9c-.4-.7-1.3-.1-1,.6Z"/><path class="cls-5" d="M939.9,721.7c2.9-3.3,2.9-10.1-.8-12.9-.5-.4-1.1.3-.9.8s1.9,3.3,2.2,5.4a11.6,11.6,0,0,1-1.3,6.1c-.2.5.4,1.1.8.6Z"/><path class="cls-5" d="M921.7,706.6c2.4,2.1,6.8,1.5,9.3-.1.7-.4,0-1.5-.7-1.1a8.9,8.9,0,0,1-4.2,1.2,17.6,17.6,0,0,1-4-.6c-.3-.1-.7.3-.4.6Z"/><path class="cls-5" d="M845.9,1108c-1.4-4.5-3.3-10.4-6.7-13.9-.3-.3-1.1.1-.9.6.7,2.1,2.1,4,3.1,6s2.4,5,3.5,7.6c.3.6,1.2.4,1-.3Z"/><path class="cls-5" d="M942.9,1058.2a3.2,3.2,0,0,1,1.5-2.1c.9-.5,1.8-.2,2.6-.6a.9.9,0,0,0,.1-1.4c-1-1-2.9-.3-3.8.5a4,4,0,0,0-1.7,3.5c0,.7,1.2,1,1.3.1Z"/><path class="cls-11" d="M813.6,1397.9c-143.7-11-292.1,30.1-121.7,41.4S1056.9,1416.7,813.6,1397.9Z"/><path class="cls-12" d="M538.6,783.2S525.8,857.9,435,903.8c0,0-28.3,11.4-15.8,34.1,6.9,12.5,27.9,5.7,27.9,5.7S559.4,889.4,560,785.1Z"/><path class="cls-12" d="M314.2,1039.6s-28.2,4.4-61.4,60l-15.9-45.5s-5.7-4.3-15.8,5c0,0-12.3,47.7,15.8,102.6,0,0,60-21,87.4-55.6,0,0-10.8,49.1-8.6,80.1l-78.8,93.9s5.1,12.3,22.4,14.5c0,0,78-73,93.2-87.4,0,0,29.6-61.4,44.8-136.5Z"/><path class="cls-12" d="M559.7,785.5s4.8-9.8,6.8-35.5-3-26.5-4.8-23.8-3.5,19.5-3.5,19.5,1.1-24.4-4.8-27.5-2.3,17.7-3.8,25.2c0,0-.9-22.9-5.3-26.3s-.9,18.2-2.9,26.3c0,0-.5-19.6-6-25.5s-3.4,9.7-2.4,16.3.9,19.6-1,25.4c0,0-5.1-6.1-6.8-11.4s-8.6-7-7.6-1.1,2.4,22.3,21.7,37.4Z"/><path class="cls-13" d="M395.8,1076.7s-7.5,47.9-13.9,71.3c0,0-32.9,6.1-66.6-12.6l6.5-21.7-21,16.9s-35-14.5-40.3-51.5c0,0,26-34.6,53.7-39.5S395.8,1076.7,395.8,1076.7Z"/><path class="cls-14" d="M382.9,894.5c-8.6-1-27.2,1.3-42.7,3.8A25,25,0,0,0,319.4,927c3.8,23,8.4,56.9,6.7,76.6-2.8,31.9-29.9,36.2-29.9,36.2s59.8,66.7,108.6,38c0,0,9.8-39.7,39.1-93.1,10.4-19,7.5-59.8-10.9-76.5C423.6,899.7,413.3,898.3,382.9,894.5Z"/><path class="cls-14" d="M155,1049.2s41.5,20.7,64.6,23.3c0,0,.9-10.7,19.2-12.2,0,0,1.8-11.3-4.1-19.9,0,0-17.3.9-31.8,2.8Z"/><path class="cls-12" d="M195.8,956s63.5,21.8,105.9-30c3.6-4.3,12-16.8,15.1-19.1,5.1-3.9,13.8-8.4,23.6-4.6,23.6,9.3,8.6,32.2,8.6,32.2s-57,97-164.8,36.1Z"/><path class="cls-12" d="M185.1,971s-9.6-2.7-28.4-16.9-16.2-18.1-13.3-17.7,15.4,9.5,15.4,9.5-17.4-14.1-15.9-20.1,13.5,9.2,19.5,12.7c0,0-15-14.5-14.7-19.5s13,10.3,19.7,13.9c0,0-13-12.2-13.8-19.5s8.8,3.5,12.7,8.2,12.8,12.5,17.9,14.7c0,0-1.1-7.2-3.7-11.5s.5-10.2,3.9-5.9,13.8,15.2,12.4,37.5Z"/><path class="cls-12" d="M378.1,875l-4.9,25.8a17.7,17.7,0,0,0,13.5,13c11.3,2.5,17.6-4.7,17.6-4.7l5-31.3a22.4,22.4,0,0,0-14.2-8.4C385.5,867.8,379,870.8,378.1,875Z"/><path class="cls-3" d="M377.6,857.5s-13.7,22.6-61.7,15.4c-32.6-4.8-47.7-29.4-47.7-29.4s-35.8,20.8-69.4,4.5-31.1-71.1-31.1-71.1-78.1-3.6-68.9-53.3,64.7-4.1,64.7-4.1-.9-28,23.7-40.6,59,14.8,59,14.8,3.2-28.3,46.5-37.7,67.2,34.2,67.2,34.2,17.1-14.4,44.5-4,18.1,41,18.1,41,13.5-2,26.2,15.3.8,44.9-16.5,49.6Z"/><path class="cls-12" d="M440.7,803.6s1.3-14,8.5-16.8,19.7,24.1,4.7,37S440.7,803.6,440.7,803.6Z"/><path class="cls-12" d="M355.2,829s-8.6-11.2-16.2-9.7-3.6,31,16,33.8S355.2,829,355.2,829Z"/><path class="cls-12" d="M381.9,754c-18.3,4.9-36.6,32-32.7,52.1,1.7,8.9,3.9,30.4,15.8,50.6,10.2,17.2,37.5,33.2,54.1,28.5s29.8-29.4,29.5-49.8c-.4-27.6-12.8-53.3-15-57.8C425.8,761.8,400.5,748.9,381.9,754Z"/><path class="cls-15" d="M408.5,825.7c2.8-1.5,5.7-3.6,8.7-4.6a3,3,0,0,1,4.2,2.5c.8,4-2.7,9.9-6.9,10.5a.8.8,0,0,1-.7-1.4c2.4-2.2,5.3-3.8,5.6-7.4.1-1.7-.1-2.5-2.3-2a10.8,10.8,0,0,0-2.4,1.2l-5.6,2.5a.7.7,0,1,1-.6-1.3Z"/><path class="cls-15" d="M389.9,852a72.4,72.4,0,0,0,14.7,2.1,28.9,28.9,0,0,0,7.2-.7c2.4-.4,4.5-1.5,6.8-2.1.8-.2,1.4,1.1.7,1.6-3.7,3-9.4,3.5-13.9,3.5a48.9,48.9,0,0,1-16-3.1c-.8-.3-.4-1.5.5-1.3Z"/><path class="cls-15" d="M406,860.9c1.5-.3,3.1-.3,4.7-.6s3.1-.7,4.7-.9a.9.9,0,0,1,.6,1.6c-2.7,1.8-7.1,2.1-10.1,1.3a.7.7,0,0,1,.1-1.4Z"/><path class="cls-15" d="M388.8,856c-1.1-2.3-.8-6,1.2-7.7.4-.3,1.2,0,1.1.6s-.7,2.1-1,3.3a21.7,21.7,0,0,0-.2,3.6c0,.5-.8.6-1.1.2Z"/><path class="cls-15" d="M350.1,844.6c-2.8-1.3-4.7-4.4-5.6-7.3s-1.5-6,1.6-5.6a.6.6,0,0,1,.3,1.1c-1.5,1.4-.1,4.6.7,6.1s2.3,3.3,3.5,5,0,.9-.5.7Z"/><path class="cls-15" d="M451.7,815.4c1-4.4,1.1-11.9-2.8-15a1,1,0,0,1,1.2-1.7c2.4,1.4,3,4.7,3.4,7.2s.6,6.8-1,9.8a.4.4,0,1,1-.8-.3Z"/><path class="cls-3" d="M391.3,818c-1.1,2.3-4.3,3.2-7.1,2.7s-4.9-2.6-5.2-5-.4-3.9,1.3-5.1l.3-.5c1-1.5,3.6-3.5,5.9-3.2a.2.2,0,0,1,.1.4l-2.8,1.7a6.6,6.6,0,0,1,5.8,1.8A6.3,6.3,0,0,1,391.3,818Zm-7.9-6.4a2.2,2.2,0,0,0-.7.9,2.4,2.4,0,0,0-.2.8c.1,0,.1.1.2.2a2.5,2.5,0,0,0,3.9-1c.3-1-.9-1.6-2.1-1.4Z"/><path class="cls-3" d="M411.3,804.6a6.7,6.7,0,0,1,3.9-4.6c-1,0-2.1.1-3.2,0s-.3-.2-.1-.4c1.8-1.5,5-1.1,6.6-.3l.5.2c2.1.2,3.4,2.5,3.9,3.6s.6,4.9-1.8,7.1-5.3,2.7-7.5,1.4A6.2,6.2,0,0,1,411.3,804.6Zm4.5-2.4c-1.2.5-1.9,1.6-1,2.2a2.4,2.4,0,0,0,3.7-1.2.3.3,0,0,0,.1-.2,3.4,3.4,0,0,0-.6-.6l-1.1-.4Z"/><path class="cls-6" d="M374.7,836.2q5.1-.7,10.2-1.2c2.3-.1,5.1,1.9,3.9,4.6-2.3,5-10.9,4.3-15.3,2.7a4.6,4.6,0,0,1-2-7.3c2-2.4,5.3-2.7,8.2-2.8s6.5-.3,8.7,2a5.2,5.2,0,0,1-.4,7.6c-4.2,3.6-11.8,3-16.6,1a4.6,4.6,0,0,1-1.4-7.6c2.3-2.1,5.3-2.2,8.3-2.3s6.6-.7,9.1,2,.9,3.6-.3,5-4.2,1.7-6.6,1.8l-2.7.2h-1.7c-.8.2-.9.2-.2-.1l-1.5-7.5a11.9,11.9,0,0,0,4.8,1.3l1.9-.2,1.1-.3.5-.2-1.5,2.9a.9.9,0,0,0,.1-.5l.5,2.3h.1l1.8,1.2a16.4,16.4,0,0,0-3.8-.4h-1.4c-.6,0-1.6.4-1.2.1s.7-1.2,1.1-1.7v.3c0-1-.1-2.1-.1-3.2s.1.2.1.3L377,835a11.4,11.4,0,0,0,3.2.7l1.7.2h1.2c.6-.1.5.1-.4.6.8,1.8,1.7,3.6,2.6,5.4a90.7,90.7,0,0,0-10.4-.6c-2.9,0-3.1-4.7-.2-5.1Z"/><path class="cls-6" d="M426.7,822.9a12.4,12.4,0,0,1,7.2-4.4c3.1-.5,6.1,1.9,5,5.1-1.8,5.1-13.2,9.6-14.2,1.7-.5-3.5,2.8-5.7,5.6-7.1s6.9-3.2,9.6-1.4a4.7,4.7,0,0,1,1.8,5.5,7.8,7.8,0,0,1-3.1,3.6c-2.3,1.7-5.8,4.3-8.9,3.7a4.6,4.6,0,0,1-4-3.6v-.3A4.4,4.4,0,0,1,428,821a3.9,3.9,0,0,1,2.8-.3,2.5,2.5,0,0,1,1.5.5c.2.2.1.1-.3-.1l-2.3-.2a8.7,8.7,0,0,0,2.4-1l.8-.5.8-.6c.4-.4.4-.3-.1.4s.1,2.3.2,3.4l-.2-.3,3.5,2.4a17.1,17.1,0,0,0-2.7,1.1l-1.8,1c-.4.2-.6.6-.3.1a15.9,15.9,0,0,1,.7-2v.4a20.7,20.7,0,0,1-.4-2.2l.2.3a10.7,10.7,0,0,1-1.4-1.6l.3.2-2-.7c1.3.3,2.8-.7,3.7-1.7l-1.2,2.4v-.4l.9,2.5-.3-.2,1.4.9c-1.1-.4-4,1-5.3,1.4s-3.2-1.9-2.2-3.3Z"/><path class="cls-7" d="M384.1,810.9c-1.5.5-3.1,2.9-.9,3.8s4.2-1.1,3.8-2.2A2.3,2.3,0,0,0,384.1,810.9Z"/><path class="cls-7" d="M416,801.3c-1.5.5-3.1,2.9-.9,3.8s4.2-1.1,3.8-2.2A2.3,2.3,0,0,0,416,801.3Z"/><path class="cls-3" d="M383.1,796.3c-3.1-.1-6.1,2.7-8.1,4.9s-3.8,5.2-3.9,8.4a.7.7,0,0,0,1.2.5c1.7-2.2,3.1-4.6,5-6.7s4.8-3.2,6.6-5.3A1.1,1.1,0,0,0,383.1,796.3Z"/><path class="cls-3" d="M425.3,792c-4-2.7-11.1-5.2-15.8-3-.9.5-.5,1.9.3,2.2,2.4.6,5.1.2,7.5.6a37.6,37.6,0,0,1,7.3,2C425.7,794.2,426.2,792.6,425.3,792Z"/><path class="cls-3" d="M380.1,814.5a24.4,24.4,0,0,1-2.8,1.4,9.2,9.2,0,0,1-3.7.2c-.3-.1-.7.3-.4.6s3,1.2,4.4,1,3.2-.9,3.4-2.5S380.5,814.3,380.1,814.5Z"/><path class="cls-3" d="M425,798.6a5.1,5.1,0,0,1-3.9,3.7c-1,.3-.8,2,.3,1.9a5.6,5.6,0,0,0,4.9-5.4C426.4,798,425.2,797.9,425,798.6Z"/><ellipse class="cls-3" cx="416.2" cy="759.6" rx="28.9" ry="27.8" transform="translate(-192.8 143.7) rotate(-16)"/><path class="cls-3" d="M402.6,753.1a19.7,19.7,0,1,1-24.3-13.5A19.7,19.7,0,0,1,402.6,753.1Z"/><path class="cls-14" d="M359.6,853.8a4.2,4.2,0,0,1-2.9,5.3,4.3,4.3,0,0,1-5.4-2.9,4.5,4.5,0,0,1,3-5.4A4.3,4.3,0,0,1,359.6,853.8Z"/><path class="cls-14" d="M457.1,821.3a4.4,4.4,0,0,1-3,5.4,4.3,4.3,0,0,1-5.3-3,4.3,4.3,0,0,1,8.3-2.4Z"/><path class="cls-10" d="M368.6,757.6a13.2,13.2,0,0,0,5.2,9.4c2.7,1.9,5.4,1.8,8.4,2.7a.6.6,0,0,1,.1,1.1c-3.2,1.3-7.5-.7-9.9-2.7a13.2,13.2,0,0,1-4.6-10.5c0-.4.7-.5.8,0Z"/><path class="cls-10" d="M420.4,781.9a20.4,20.4,0,0,0,11.2-4.7c3.3-2.7,4.5-5.9,6.4-9.6a.5.5,0,0,1,1,.3c-.3,4.1-3.6,8.2-6.7,10.7a18.5,18.5,0,0,1-11.9,4.3c-.5,0-.6-.9,0-1Z"/><path class="cls-10" d="M287.1,849.4a25.3,25.3,0,0,0,7.1,7.1c2.8,1.8,5.8,2.2,8.7,3.6.5.2.6,1.1-.1,1.1-6.7.4-13.5-6-16.6-11.3-.4-.6.5-1,.9-.5Z"/><path class="cls-10" d="M295.5,850.8c1.9,1,3.5,2.3,5.5,3.1s5.3.7,8-.4a.7.7,0,0,1,.8,1.2c-4.3,3.7-11.6.7-14.7-3.4-.1-.2.1-.7.4-.5Z"/><path class="cls-10" d="M113.2,748.9c-3.7-4.3-4.8-11.5-3.3-16.9.1-.6,1-.4,1,.2a39.4,39.4,0,0,0,.3,8.4,43.3,43.3,0,0,0,2.7,7.9.4.4,0,0,1-.7.4Z"/><path class="cls-10" d="M118.2,744.2c-2.4-4.8-3.5-10.6-1.8-15.8a.7.7,0,0,1,1.3.3c-.5,5.3-.6,10,1.4,15.1a.5.5,0,0,1-.9.4Z"/><path class="cls-10" d="M258.9,698.4c-4.1-6.1-.7-15.2,3.6-20.4.4-.4,1.3-.1,1.1.6-1.1,2.8-2.8,5.3-3.8,8.2a16,16,0,0,0,0,11c.2.5-.5,1.2-.9.6Z"/><path class="cls-10" d="M266.4,690.4c0-4.3,1.9-11.1,6.4-12.9a.5.5,0,0,1,.7.8c-1.1,1.9-2.7,3.3-3.8,5.2a19.7,19.7,0,0,0-2.2,7c-.1.8-1.1.7-1.1-.1Z"/><path class="cls-10" d="M188,817a35.2,35.2,0,0,0,3.7,13.1c2.3,4.3,5.5,7.1,8.7,10.5a.5.5,0,0,1-.6.8c-8.3-4.2-12.7-15.6-12.8-24.4,0-.5,1-.6,1,0Z"/><path class="cls-10" d="M198.4,826c2.8,6,7.7,8.7,13.6,10.8.6.2.4,1.1-.3,1.1-6.4-.2-11.9-5.8-14-11.5-.2-.5.5-.9.7-.4Z"/><path class="cls-14" d="M264.5,1362.1s2.6-46.2-4-68.5c0,0-13.3.4-22-15.8,0,0-11,2.8-16.6,11.6-1.3-2.6,3.8,17.2,18.3,39.6S264.5,1362.1,264.5,1362.1Z"/><path class="cls-6" d="M431.7,953c3.8,14.4-6,26.9-27.7,41.9,0,0-24.6-15-30.6-34.4s16.4-18.7,31.4-3.7C404.8,956.8,425,927.6,431.7,953Z"/><path class="cls-15" d="M546.8,772.1c-1-2.7-1.8-5-4-7a12.7,12.7,0,0,0-3.4-2.3c-1.1-.5-2.4-.6-3.4-1.3a.7.7,0,0,1,.1-1.2c2.7-.8,6.2,1.7,8,3.5s3.9,5.2,3.7,8.1a.5.5,0,0,1-1,.2Z"/><path class="cls-15" d="M561.6,747.3c-4-.4-8-.9-11.9-1.5s-8.6-.9-12.7-2c-.9-.3-.8-1.9.3-1.8a94.9,94.9,0,0,1,11.9,1.8c4.2.7,8.4,1.5,12.5,2.4.7.1.5,1.2-.1,1.1Z"/><path class="cls-15" d="M183.5,939.9c-.6,2.8-1,5.3-.2,8.1s2.3,4.3,3.7,6.5c.3.5-.3,1-.8.8-5.1-2.5-6.4-11.2-3.8-15.8.4-.6,1.3-.2,1.1.4Z"/><path class="cls-15" d="M166.9,931.1a35.2,35.2,0,0,0-5.2,7.4c-1.3,2.5-1.9,5.3-3.2,7.8a.7.7,0,0,1-1.2-.3c.4-5.8,5-11.8,8.9-15.7a.5.5,0,0,1,.7.8Z"/><path class="cls-15" d="M236.8,1120.6a42.2,42.2,0,0,1,15.3-22.4c.7-.5,1.6.7.9,1.2-7.2,5.7-12.6,12.6-15.4,21.4-.2.5-1,.3-.8-.2Z"/><path class="cls-16" d="M353.8,1093.3c-1.5,4.1-5.5,7.6-9,9.9s-9.5,4.1-14,6.8l-.3-2a26.5,26.5,0,0,0,5.6.5c1,0,1.3,1.6.3,1.7a17.8,17.8,0,0,1-6.5-.1,1.2,1.2,0,0,1-.5-1.9c3.5-3,8.6-3.5,12.6-5.6a35.9,35.9,0,0,0,6-4.2c1.8-1.7,3.2-3.8,4.9-5.6s1.1,0,.9.5Z"/><path class="cls-16" d="M340.8,1114.3c-3.8,2-8.6,3.1-12.8,1.7a.6.6,0,0,1,.2-1.2c4.3.3,8,.4,12-1.5a.6.6,0,1,1,.6,1Z"/><path class="cls-16" d="M316.4,1066.6a23.6,23.6,0,0,1-13.7,5.7c-4.7.4-10.7-.4-14.4-3.6-.6-.4,0-1.4.7-1.2,4.5,1.4,8.4,3,13.3,2.8a27.3,27.3,0,0,0,13.4-4.6c.5-.4,1.2.5.7.9Z"/><path class="cls-16" d="M318.7,1071.3a22.7,22.7,0,0,1-15.7,7.1c-5.7.2-13.1-1.8-16.8-6.4-.5-.6.1-1.5.8-1.1,2.4,1.6,4.5,3.3,7.3,4.4a23.4,23.4,0,0,0,8.3,1.5,24.2,24.2,0,0,0,15.4-6.1.5.5,0,1,1,.7.6Z"/><path class="cls-16" d="M290.4,1073.9a58.9,58.9,0,0,1-18.7,17.8c-1,.6-1.8-.9-.9-1.5a73.4,73.4,0,0,0,18.6-17c.4-.6,1.5,0,1,.7Z"/><path class="cls-16" d="M301,1122.4c-8.9-3.1-15.6-11.6-21.5-18.5s-13-15.8-14.6-25.2a.8.8,0,0,1,1.6-.5,69,69,0,0,0,5.9,13.3,89.9,89.9,0,0,0,8.4,11.1c2.9,3.3,5.9,6.5,8.9,9.7s6.9,7.1,11.6,8.9c.7.2.4,1.4-.3,1.2Z"/><path class="cls-16" d="M328.8,1130.3a113,113,0,0,0,1.7-14.1c.1-1.2,1.9-1.2,1.8,0a63.8,63.8,0,0,1-2.4,14.4.6.6,0,1,1-1.1-.3Z"/><path class="cls-16" d="M379.9,1139.4c-20.4,1.4-40.1-2.7-58.7-10.9-1.2-.5-.2-2.3,1-1.7,17.7,8.7,38,12.3,57.7,11.5a.6.6,0,0,1,0,1.1Z"/><path class="cls-17" d="M319.5,1035.5c2.3-4,5.2-7.6,7.3-11.8a41.3,41.3,0,0,0,4.2-13.3,141.5,141.5,0,0,0,1.4-14.6c.3-4.9.2-10,1.1-14.8.2-.8,1.3-.5,1.3.2.6,5.5-.2,11.2-.6,16.6s-.7,9.5-1.5,14.1a51.2,51.2,0,0,1-12.5,24.2c-.3.4-1-.1-.7-.6Z"/><path class="cls-17" d="M338.2,972.7a6.4,6.4,0,0,1-1.8,2.5c-.6.6-1.6,1.5-2.5,1.3s-.4-.4-.3-.7.6-.5.9-.7a4.2,4.2,0,0,0,1.2-.8,8.3,8.3,0,0,0,1.6-2.1c.3-.6,1.1-.1.9.5Z"/><path class="cls-17" d="M337.4,969.9c-1,1-1.9,2.1-2.9,3s-1.6-.3-1-1a20.6,20.6,0,0,1,3-2.9c.6-.6,1.4.3.9.9Z"/><path class="cls-17" d="M399.5,914.7c2.5,1.3,5,2.7,7.4,4.2s3,1.6,4.6-.3a8.5,8.5,0,0,0,1.4-3.4,13.5,13.5,0,0,0,.1-7.2c-.5-2.3-1.8-4-2.8-6.1s.5-1.4,1.2-.9c4.5,3.7,4.6,11.9,2.4,16.9-.7,1.7-2.1,4.4-4.4,4.2s-3-1.6-4.3-2.3l-6.1-4.1c-.6-.4-.1-1.3.5-1Z"/><path class="cls-17" d="M396.4,916.1c-4.2,1.2-4.8,6.9-8.2,9.3s-9.6.8-13.4-1.2c-8.4-4.3-14.6-13.7-14.1-23.3a1,1,0,0,1,2,0c.5,9.2,5.4,17.7,13.9,21.7a17.1,17.1,0,0,0,7,2c2.9,0,4.5-1.6,6.1-3.9s3.1-5.2,6.3-5.8c.8-.2,1.2,1,.4,1.2Z"/><path class="cls-17" d="M238.5,1059.3c-8.5,1.5-16.9-4.8-19.5-12.7a1,1,0,0,1,1.9-.6c2.5,7.7,9.7,11.7,17.4,12,.8,0,1,1.2.2,1.3Z"/><path class="cls-17" d="M234.7,1045.4c-12.3-.4-24.2,3.1-36.5,3.2-6,0-11.9-.1-17.8.4a136.2,136.2,0,0,0-19.1,3.3.9.9,0,0,1-.5-1.8c12.2-3.3,24.4-3.9,36.9-3.9s24.9-4.5,37.1-2.1c.5.1.3.9-.1.9Z"/><path class="cls-17" d="M209.5,1057.1a66.8,66.8,0,0,0-.7,7.7c0,2.6.7,5.2.5,7.7a.8.8,0,0,1-1.4.4c-2.2-4.4-1.3-11.5.3-15.9.3-.6,1.4-.6,1.3.1Z"/><path class="cls-17" d="M203.9,1055.7c-.4,4.9-.2,10.2-1.2,14.9a.8.8,0,0,1-1.6-.2c-.3-4.8.9-9.9,1.4-14.7.1-.8,1.4-.9,1.4,0Z"/><path class="cls-17" d="M196,1054.3c0,4.5.3,9.7-.8,14.1a.9.9,0,0,1-1.7-.2c-.6-4.4.5-9.5,1-13.9.1-.9,1.5-1,1.5,0Z"/><path class="cls-17" d="M233.7,1283.5c2.4,5.5,1.7,14.1-3.6,17.9-.8.6-1.7-.5-1.3-1.3,1.5-2.5,3.2-4.4,3.9-7.3a19.6,19.6,0,0,0,.1-9c-.1-.5.7-.9.9-.3Z"/><path class="cls-17" d="M257.4,1349.5c-3.1-3.2-5.4-7.7-7.9-11.4s-5.8-8.5-8.6-12.8-5.3-8-7.7-12.1-4.5-7.3-4.6-11.2c0-.9,1.3-1.3,1.7-.5s1.4,4.1,2.3,6.1a52.4,52.4,0,0,0,3.2,5.7c2.5,4,5.1,7.9,7.6,11.8l7.5,12.2c2.3,3.8,5.4,7.7,7.1,11.9.1.3-.4.6-.6.3Z"/><path class="cls-17" d="M268,1333.2a13.3,13.3,0,0,0-7.5-2.6c-2.7-.1-4.7,1-7.2,1.6a1,1,0,0,1-1-1.6c4.5-4.1,12.5-2.1,16.7,1.3.8.6-.2,1.9-1,1.3Z"/><path class="cls-17" d="M267,1321c-2.7-.3-5.2-1.1-8-1.2s-5.4.8-8.2.9a1,1,0,0,1-.4-1.8c4.3-2.7,13-1.8,16.9,1.4.3.2.1.8-.3.7Z"/><path class="cls-17" d="M267.1,1314.2a19.3,19.3,0,0,0-11.1-5.1,22.6,22.6,0,0,0-5.8.2,39.9,39.9,0,0,1-4.7,1.1c-.7.1-.9-.8-.5-1.2,2.7-2.7,8.2-2.7,11.7-2.1a19.9,19.9,0,0,1,11.4,6,.7.7,0,0,1-1,1.1Z"/><path class="cls-11" d="M259.3,1442.6c55.6-7.3,113,19.6,47.1,26.9S165.2,1454.8,259.3,1442.6Z"/></g></svg>